<svg width="71" height="71" viewBox="0 0 71 71" fill="none" xmlns="http://www.w3.org/2000/svg">
<path d="M46.8568 24.9203L44.832 21.1879C44.1062 19.8865 43.0337 18.3927 41.1663 18.3927H30.9132C29.407 18.3927 28.0902 19.3907 27.2032 21.2019L25.113 24.9058C23.7371 25.1983 22.7295 26.4844 22.7295 28.0724C22.7295 28.1126 22.7321 28.1527 22.7371 28.1926L23.4078 33.491C23.4216 33.897 23.5521 34.2905 23.7837 34.6244C24.0153 34.9582 24.3382 35.2183 24.7137 35.3734V36.6766C24.7141 37.0833 24.8758 37.4732 25.1634 37.7607C25.4509 38.0483 25.8408 38.21 26.2474 38.2105H27.9989C28.4056 38.2101 28.7955 38.0483 29.083 37.7608C29.3706 37.4732 29.5323 37.0833 29.5328 36.6766V35.5324H42.4497V36.6766C42.4501 37.0833 42.6118 37.4732 42.8994 37.7608C43.187 38.0483 43.5768 38.2101 43.9835 38.2105H45.735C46.1417 38.21 46.5315 38.0483 46.819 37.7607C47.1066 37.4732 47.2683 37.0833 47.2687 36.6766V35.3595C47.6361 35.2012 47.9511 34.9419 48.1769 34.6117C48.4028 34.2815 48.5303 33.8939 48.5446 33.4941L49.2446 28.1978C49.2501 28.1562 49.2529 28.1143 49.2529 28.0724C49.2529 26.5212 48.2229 25.223 46.8568 24.9203ZM28.8844 22.1176C28.8941 22.1002 28.9033 22.0826 28.9118 22.0648C29.2301 21.4086 29.9135 20.3069 30.9129 20.3069H41.166C41.8548 20.3069 42.4512 20.8493 43.1546 22.1105L44.6424 24.8528H43.9276C43.7349 24.1434 43.3142 23.5172 42.7303 23.0707C42.1464 22.6242 41.4317 22.3823 40.6967 22.3823C39.9616 22.3823 39.247 22.6242 38.663 23.0707C38.0791 23.5172 37.6584 24.1434 37.4657 24.8528H27.3409L28.8844 22.1176ZM41.8291 24.8532H39.5652C39.6987 24.68 39.8701 24.5398 40.0663 24.4433C40.2625 24.3468 40.4783 24.2966 40.6969 24.2966C40.9156 24.2966 41.1313 24.3468 41.3275 24.4433C41.5237 24.5398 41.6952 24.68 41.8287 24.8532H41.8291ZM27.6191 36.2966H26.6282V35.5324H27.6191V36.2966ZM45.3551 36.2966H44.3641V35.5324H45.3551V36.2966ZM46.6402 33.2967C46.6347 33.3382 46.6319 33.3801 46.6319 33.4221C46.6312 33.474 46.6103 33.5235 46.5736 33.5602C46.5369 33.5969 46.4873 33.6178 46.4354 33.6185H25.5175C25.4655 33.6179 25.4159 33.597 25.3792 33.5603C25.3425 33.5236 25.3215 33.474 25.3209 33.4221C25.3209 33.3819 25.3184 33.3417 25.3132 33.3019L24.6446 28.0192C24.6649 27.416 25.0301 26.8116 25.6327 26.7628C25.6558 26.7645 25.6787 26.7674 25.702 26.7674H46.2364C46.2398 26.7674 46.2432 26.7674 46.2469 26.7674C46.9018 26.7674 47.3143 27.4057 47.3378 28.0169L46.6402 33.2967Z" fill="#FEBE41"/>
<path d="M39.4549 30.3035H32.5274C32.2736 30.3035 32.0302 30.4043 31.8507 30.5838C31.6712 30.7633 31.5704 31.0067 31.5704 31.2605C31.5704 31.5143 31.6712 31.7577 31.8507 31.9372C32.0302 32.1167 32.2736 32.2175 32.5274 32.2175H39.4549C39.7088 32.2175 39.9522 32.1167 40.1317 31.9372C40.3112 31.7577 40.412 31.5143 40.412 31.2605C40.412 31.0067 40.3112 30.7633 40.1317 30.5838C39.9522 30.4043 39.7088 30.3035 39.4549 30.3035Z" fill="#FEBE41"/>
<path d="M27.7372 28.1698C27.2487 28.1698 26.7712 28.3146 26.3651 28.5859C25.959 28.8573 25.6424 29.243 25.4555 29.6942C25.2685 30.1455 25.2196 30.642 25.3149 31.1211C25.4102 31.6001 25.6454 32.0402 25.9907 32.3855C26.3361 32.7309 26.7761 32.9662 27.2552 33.0615C27.7342 33.1568 28.2308 33.1079 28.682 32.9209C29.1333 32.734 29.519 32.4175 29.7904 32.0114C30.0617 31.6053 30.2066 31.1278 30.2066 30.6394C30.2058 29.9846 29.9454 29.357 29.4825 28.894C29.0195 28.431 28.3919 28.1706 27.7372 28.1698ZM27.7372 31.1948C27.6273 31.1949 27.5199 31.1623 27.4285 31.1013C27.3371 31.0403 27.2659 30.9535 27.2238 30.852C27.1818 30.7505 27.1708 30.6388 27.1922 30.5311C27.2136 30.4233 27.2665 30.3243 27.3442 30.2466C27.4219 30.1689 27.5208 30.116 27.6286 30.0945C27.7364 30.0731 27.848 30.0841 27.9496 30.1261C28.0511 30.1682 28.1378 30.2394 28.1989 30.3307C28.2599 30.4221 28.2925 30.5295 28.2925 30.6394C28.2923 30.7866 28.2337 30.9277 28.1296 31.0319C28.0255 31.136 27.8844 31.1946 27.7372 31.1948Z" fill="#FEBE41"/>
<path d="M44.2455 28.1698C43.7571 28.1698 43.2796 28.3147 42.8735 28.5861C42.4674 28.8574 42.1509 29.2431 41.964 29.6944C41.7771 30.1456 41.7282 30.6422 41.8235 31.1212C41.9188 31.6003 42.154 32.0403 42.4994 32.3856C42.8448 32.731 43.2848 32.9662 43.7639 33.0615C44.2429 33.1567 44.7395 33.1078 45.1907 32.9209C45.6419 32.734 46.0276 32.4175 46.299 32.0114C46.5703 31.6052 46.7152 31.1278 46.7152 30.6394C46.7144 29.9846 46.454 29.3568 45.991 28.8939C45.528 28.4309 44.9002 28.1705 44.2455 28.1698ZM44.2455 31.1948C44.1356 31.1948 44.0282 31.1622 43.9369 31.1012C43.8456 31.0401 43.7744 30.9533 43.7324 30.8518C43.6903 30.7503 43.6794 30.6386 43.7008 30.5309C43.7223 30.4232 43.7752 30.3242 43.8529 30.2465C43.9306 30.1688 44.0295 30.116 44.1373 30.0945C44.245 30.0731 44.3567 30.0841 44.4582 30.1262C44.5597 30.1682 44.6465 30.2394 44.7075 30.3308C44.7685 30.4221 44.8011 30.5295 44.8011 30.6394C44.8009 30.7866 44.7423 30.9279 44.6382 31.032C44.534 31.1361 44.3928 31.1947 44.2455 31.1948Z" fill="#FEBE41"/>
<path d="M35.9914 10.9551C26.5154 10.9551 18.8059 18.7382 18.8059 28.3047C18.8059 37.8712 26.515 45.6543 35.9914 45.6543C45.4678 45.6543 53.177 37.8712 53.177 28.3047C53.177 18.7382 45.4674 10.9551 35.9914 10.9551ZM35.9914 43.7402C27.5709 43.7402 20.7199 36.8158 20.7199 28.3047C20.7199 19.7935 27.5709 12.8691 35.9914 12.8691C44.4119 12.8691 51.2629 19.7937 51.2629 28.3047C51.2629 36.8157 44.4119 43.7407 35.9914 43.7407V43.7402Z" fill="#33484B"/>
<path d="M52.8271 12.5807C48.3316 8.17314 42.287 5.70422 35.9913 5.70422C29.6956 5.70422 23.6509 8.17314 19.1554 12.5807C14.8544 16.821 12.2534 22.4885 11.8432 28.5144C11.6297 31.804 12.1214 35.1012 13.2854 38.1854C14.4263 41.2616 16.2827 44.16 18.8031 46.8008L35.2989 64.0854C35.3883 64.1791 35.4957 64.2536 35.6147 64.3045C35.7337 64.3555 35.8618 64.3817 35.9913 64.3817C36.1207 64.3817 36.2488 64.3555 36.3678 64.3045C36.4868 64.2536 36.5942 64.1791 36.6836 64.0854L53.1794 46.8008C55.6998 44.1599 57.5562 41.2612 58.6971 38.1854C59.8611 35.1012 60.3528 31.804 60.1393 28.5144C59.7291 22.4885 57.1282 16.821 52.8271 12.5807ZM56.9024 37.5197C55.8528 40.3498 54.1342 43.0279 51.7949 45.4792L35.9913 62.0383L20.1877 45.4792C17.8483 43.0279 16.1297 40.3498 15.0801 37.5197C14.0107 34.6896 13.5581 31.6637 13.7527 28.6445C14.1316 23.0846 16.5317 17.8555 20.5002 13.9431C24.6374 9.88924 30.199 7.61865 35.9913 7.61865C41.7836 7.61865 47.3451 9.88924 51.4823 13.9431C55.4509 17.8555 57.8509 23.0846 58.2298 28.6445C58.4244 31.6637 57.9719 34.6896 56.9024 37.5197Z" fill="#33484B"/>
</svg>
