<svg width="80" height="80" viewBox="0 0 80 80" fill="none" xmlns="http://www.w3.org/2000/svg">
<path d="M56.25 1.25H23.75C22.4245 1.25174 21.1537 1.77908 20.2164 2.71638C19.2791 3.65369 18.7517 4.92445 18.75 6.25V73.75C18.7517 75.0755 19.2791 76.3463 20.2164 77.2836C21.1537 78.2209 22.4245 78.7483 23.75 78.75H56.25C57.5756 78.7483 58.8463 78.2209 59.7836 77.2836C60.7209 76.3463 61.2483 75.0755 61.25 73.75V6.25C61.2483 4.92445 60.7209 3.65369 59.7836 2.71638C58.8463 1.77908 57.5756 1.25174 56.25 1.25ZM45.85 3.75L45.1469 6.25H34.7266L34.1016 3.75H45.85ZM58.75 73.75C58.7491 74.4128 58.4855 75.0482 58.0168 75.5168C57.5482 75.9855 56.9128 76.2491 56.25 76.25H23.75C23.0872 76.2491 22.4518 75.9855 21.9832 75.5168C21.5145 75.0482 21.2509 74.4128 21.25 73.75V6.25C21.2509 5.58723 21.5145 4.95184 21.9832 4.48319C22.4518 4.01454 23.0872 3.75087 23.75 3.75H31.5234L32.5375 7.80312C32.6051 8.07355 32.7611 8.31362 32.9808 8.48518C33.2005 8.65675 33.4713 8.74996 33.75 8.75H46.0938C46.3662 8.75 46.6311 8.66101 46.8483 8.49657C47.0655 8.33214 47.223 8.10126 47.2969 7.83906L48.4469 3.75H56.25C56.9128 3.75087 57.5482 4.01454 58.0168 4.48319C58.4855 4.95184 58.7491 5.58723 58.75 6.25V73.75Z" fill="#33484B"/>
<path d="M33.75 71.25H25C24.6685 71.25 24.3505 71.3817 24.1161 71.6161C23.8817 71.8505 23.75 72.1685 23.75 72.5C23.75 72.8315 23.8817 73.1495 24.1161 73.3839C24.3505 73.6183 24.6685 73.75 25 73.75H33.75C34.0815 73.75 34.3995 73.6183 34.6339 73.3839C34.8683 73.1495 35 72.8315 35 72.5C35 72.1685 34.8683 71.8505 34.6339 71.6161C34.3995 71.3817 34.0815 71.25 33.75 71.25Z" fill="#33484B"/>
<path d="M38.75 71.25H37.5C37.1685 71.25 36.8505 71.3817 36.6161 71.6161C36.3817 71.8505 36.25 72.1685 36.25 72.5C36.25 72.8315 36.3817 73.1495 36.6161 73.3839C36.8505 73.6183 37.1685 73.75 37.5 73.75H38.75C39.0815 73.75 39.3995 73.6183 39.6339 73.3839C39.8683 73.1495 40 72.8315 40 72.5C40 72.1685 39.8683 71.8505 39.6339 71.6161C39.3995 71.3817 39.0815 71.25 38.75 71.25Z" fill="#33484B"/>
<path d="M44.3931 32.678C44.2523 32.5936 44.0963 32.5377 43.934 32.5135C43.7716 32.4893 43.6061 32.4974 43.4468 32.5372C43.2876 32.577 43.1377 32.6478 43.0058 32.7455C42.8739 32.8433 42.7626 32.966 42.6781 33.1068L35.1781 45.6068C35.0075 45.891 34.9569 46.2314 35.0373 46.5531C35.1177 46.8747 35.3226 47.1512 35.6069 47.3218C35.8911 47.4923 36.2315 47.543 36.5532 47.4626C36.8748 47.3822 37.1513 47.1773 37.3219 46.893L44.8219 34.393C44.9063 34.2523 44.9622 34.0962 44.9864 33.9339C45.0105 33.7715 45.0025 33.606 44.9627 33.4467C44.9229 33.2875 44.8521 33.1376 44.7543 33.0057C44.6566 32.8738 44.5339 32.7625 44.3931 32.678Z" fill="#FEBE41"/>
<path d="M48.4761 32.9688C48.3735 32.8406 48.2467 32.7339 48.1028 32.6547C47.959 32.5755 47.801 32.5255 47.6378 32.5074C47.3082 32.4708 46.9776 32.5667 46.7188 32.7739C46.4599 32.9811 46.2939 33.2827 46.2574 33.6122C46.2208 33.9418 46.3167 34.2724 46.5239 34.5313L50.8989 40L46.5239 45.4688C46.3167 45.7276 46.2208 46.0582 46.2574 46.3878C46.2939 46.7173 46.4599 47.0189 46.7188 47.2261C46.9776 47.4333 47.3082 47.5292 47.6378 47.4926C47.9673 47.4561 48.2689 47.2901 48.4761 47.0313L53.4761 40.7813C53.6536 40.5596 53.7503 40.284 53.7503 40C53.7503 39.716 53.6536 39.4405 53.4761 39.2188L48.4761 32.9688Z" fill="#FEBE41"/>
<path d="M31.5239 47.0312C31.7311 47.2901 32.0327 47.456 32.3622 47.4926C32.6918 47.5291 33.0224 47.4332 33.2813 47.226C33.5401 47.0188 33.7061 46.7173 33.7426 46.3877C33.7792 46.0582 33.6833 45.7276 33.4761 45.4687L29.1011 39.9999L33.4761 34.5312C33.5787 34.403 33.655 34.2559 33.7008 34.0982C33.7465 33.9405 33.7607 33.7753 33.7426 33.6122C33.7245 33.449 33.6745 33.291 33.5953 33.1471C33.5162 33.0033 33.4094 32.8764 33.2813 32.7738C33.1531 32.6713 33.0059 32.5949 32.8482 32.5492C32.6906 32.5034 32.5254 32.4892 32.3622 32.5073C32.199 32.5254 32.041 32.5755 31.8972 32.6546C31.7533 32.7338 31.6265 32.8405 31.5239 32.9687L26.5239 39.2187C26.3464 39.4404 26.2497 39.7159 26.2497 39.9999C26.2497 40.2839 26.3464 40.5595 26.5239 40.7812L31.5239 47.0312Z" fill="#FEBE41"/>
</svg>
