<svg width="71" height="71" viewBox="0 0 71 71" fill="none" xmlns="http://www.w3.org/2000/svg">
<path d="M39.6861 19.5858C41.2409 19.5858 42.8807 19.0526 44.3276 18.5828C44.5788 18.5008 44.8495 18.4136 45.1241 18.3285C45.0599 18.1969 44.9685 18.0804 44.8559 17.9867C44.4372 17.6586 42.7935 18.1918 41.5932 18.5823C40.5713 18.9144 39.4529 19.2768 38.3363 19.4616C38.7813 19.5458 39.2333 19.5874 39.6861 19.5858Z" fill="#D4E1F4"/>
<path d="M60.577 53.0812C59.8934 50.2329 57.7956 47.576 54.6699 45.4453C53.622 41.1884 52.5696 34.8313 52.5359 29.9701L52.5313 29.291C52.4924 23.084 52.4481 16.0473 49.5235 10.375C46.9078 5.29946 40.8867 2.09382 34.8829 2.57931C34.525 2.60845 34.1765 2.70911 33.8582 2.87532C33.5399 3.04154 33.2582 3.26993 33.0297 3.54697C32.8013 3.82401 32.6307 4.14408 32.5282 4.48822C32.4256 4.83236 32.3932 5.19357 32.4327 5.55048C32.4464 5.6735 32.4302 5.79801 32.3854 5.91342C32.3406 6.02882 32.2687 6.13171 32.1756 6.21332C32.0825 6.29494 31.9711 6.35287 31.8509 6.38219C31.7306 6.41151 31.605 6.41135 31.4849 6.38173C28.5354 5.65712 25.2882 6.61688 22.7991 8.94917C20.8697 10.757 19.5179 13.236 18.7796 16.3172C17.9438 19.8078 17.9434 23.9598 18.7784 28.6581C19.5224 32.8446 18.7263 38.496 16.4778 45.0167C13.0859 47.2247 10.7919 50.0595 10.0318 53.1476C9.01745 57.2686 7.49522 63.4902 7.49522 63.4902C7.47706 63.5647 7.46788 63.641 7.46788 63.7176C7.46788 65.6883 9.10003 67.4169 10.9606 67.4169H59.6462C61.5068 67.4169 63.1391 65.6883 63.1391 63.7176C63.1392 63.6405 63.13 63.5636 63.1117 63.4887C63.0977 63.4321 61.7042 57.7784 60.577 53.0812ZM20.6629 28.3232C18.7078 17.322 21.9819 12.3377 24.1082 10.3459C26.0931 8.48651 28.745 7.67987 31.0286 8.24042C31.448 8.34352 31.886 8.34388 32.3055 8.24146C32.725 8.13905 33.1135 7.93689 33.4382 7.65216C33.7628 7.36743 34.0139 7.00855 34.1702 6.606C34.3265 6.20344 34.3832 5.76912 34.3357 5.33993C34.3243 5.23756 34.3335 5.13395 34.3629 5.03521C34.3922 4.93648 34.4411 4.84463 34.5065 4.7651C34.572 4.68557 34.6527 4.61998 34.744 4.5722C34.8352 4.52442 34.9351 4.49543 35.0378 4.48694C40.2105 4.07036 45.5871 6.91384 47.8233 11.2519C50.5374 16.5172 50.5802 23.3105 50.618 29.3029L50.6223 29.9833C50.6527 34.3418 51.4718 39.8472 52.3913 44.0815C51.1924 43.4557 49.9495 42.9179 48.6726 42.4723C48.2418 41.6907 47.5826 41.0593 46.7831 40.6624C46.5142 40.5201 44.5652 39.8238 42.8372 39.2161L41.788 37.1534C44.5837 34.9766 45.3957 31.6398 45.6288 30.0276C47.5853 29.5081 49.3854 27.2112 50.1054 24.1646C50.4796 22.5787 49.9397 21.086 48.7617 20.4493C48.3312 20.2125 47.8383 20.114 47.3498 20.1671C47.3508 20.0888 47.3508 20.0093 47.3498 19.9288C47.3274 18.3063 46.886 17.1464 46.0373 16.481C44.816 15.524 43.0487 16.0982 41.0021 16.7625C39.6263 17.2094 38.2036 17.6717 36.9521 17.6717C34.3359 17.6717 33.4198 16.0129 32.4498 14.2566C31.66 12.8262 30.7648 11.2058 28.8378 11.2058C27.2097 11.2058 25.8962 11.7839 24.934 12.924C23.2771 14.887 23.1349 18.0954 23.2404 20.1128C22.781 20.0626 22.317 20.1505 21.9077 20.3653C20.6805 20.9976 20.1155 22.5244 20.5017 24.165C21.2204 27.206 23.0143 29.4998 24.9665 30.0246C25.1787 31.6475 25.9605 35.0176 28.822 37.1994L27.7956 39.3881C25.5659 40.1137 24.3218 40.5405 24.1022 40.6552C23.3858 41.0115 22.777 41.5519 22.3385 42.2212C21.1793 42.6119 20.047 43.078 18.9486 43.6164C20.7896 37.6292 21.3835 32.3782 20.6629 28.3232ZM40.0549 36.0363C38.7698 36.8484 37.1717 37.2601 35.3034 37.2601C33.4291 37.2601 31.8264 36.8573 30.54 36.0628C27.1511 33.9677 26.8304 29.6403 26.805 29.1537C26.7977 28.9047 26.6937 28.6684 26.515 28.4948C26.3363 28.3212 26.097 28.2241 25.8479 28.224C25.8419 28.224 25.8359 28.224 25.83 28.224C24.6763 28.2477 23.0071 26.4427 22.3648 23.726C22.166 22.8814 22.4255 22.2522 22.7845 22.0672C23.1192 21.8945 23.4715 22.2135 23.6516 22.4187C23.789 22.5753 23.9738 22.6828 24.1779 22.7248C24.3821 22.7669 24.5943 22.7411 24.7824 22.6515C24.9706 22.5619 25.1243 22.4133 25.2203 22.2283C25.3163 22.0434 25.3493 21.8321 25.3143 21.6267C25.0704 20.1952 24.7895 16.0633 26.3967 14.1591C26.9868 13.4601 27.7852 13.12 28.838 13.12C29.56 13.12 29.9826 13.749 30.7745 15.1822C31.8008 17.0407 33.2064 19.586 36.9521 19.586C38.5069 19.586 40.1467 19.0528 41.5936 18.5831C42.7938 18.1931 44.4373 17.6591 44.8562 17.9875C45.5378 18.5219 45.5226 20.4588 45.298 21.5982C45.2572 21.8018 45.2838 22.013 45.3736 22.2002C45.4634 22.3873 45.6116 22.5402 45.7958 22.6357C45.9801 22.7313 46.1905 22.7643 46.3952 22.7299C46.5998 22.6954 46.7878 22.5954 46.9307 22.4448C47.0831 22.284 47.4784 21.9318 47.8513 22.1334C48.1795 22.3104 48.4409 22.8841 48.2425 23.7249C47.6039 26.4272 45.9519 28.2246 44.7972 28.2246H44.7767C44.5267 28.221 44.2851 28.3148 44.1031 28.4862C43.9211 28.6576 43.813 28.8932 43.8017 29.1429C43.748 29.933 43.313 33.9796 40.0549 36.0363ZM41.1666 40.1544L40.1318 47.1904C38.6999 47.9472 35.7482 48.7626 35.1797 48.7669C34.6328 48.7532 31.7814 47.9281 30.4264 47.2083L29.4449 40.3792L30.469 38.1949C31.8675 38.8456 33.4886 39.1745 35.3034 39.1745C37.1248 39.1745 38.7513 38.8351 40.1542 38.1643L41.1666 40.1544ZM10.961 65.5029C10.1798 65.5029 9.43964 64.6988 9.3855 63.82C9.60521 62.9223 10.9609 57.3814 11.8905 53.6051C12.5479 50.9334 14.6112 48.4564 17.6864 46.5053C17.7495 46.4749 17.8091 46.4376 17.8641 46.3941C19.1228 45.6213 20.4504 44.9671 21.8301 44.4398C21.8877 44.849 22.0213 45.2438 22.2239 45.6039C22.653 46.3404 23.1782 47.0166 23.7857 47.6146C23.4361 47.7492 23.1005 47.9175 22.7837 48.1173C22.5464 48.2804 22.3449 48.4901 22.1915 48.7337C22.0381 48.9774 21.936 49.2497 21.8914 49.5341C21.7211 50.4406 22.0008 51.5289 22.6387 52.4505L30.7332 65.5029H10.961ZM24.2524 51.42C24.243 51.4047 24.233 51.3897 24.2228 51.3749C23.8255 50.8086 23.7108 50.2198 23.7731 49.8875C23.779 49.8223 23.8044 49.7604 23.8461 49.7098C24.2799 49.4204 25.3383 49.0769 25.9032 48.9285C26.0773 48.8829 26.235 48.7891 26.3582 48.6579C26.4814 48.5268 26.5652 48.3635 26.5998 48.1869C26.6345 48.0103 26.6186 47.8275 26.5541 47.6595C26.4895 47.4915 26.379 47.3451 26.235 47.2371C26.2193 47.2254 24.656 46.0404 23.8978 44.6742C23.8063 44.5197 23.7479 44.3478 23.7264 44.1696C23.7049 43.9913 23.7207 43.8105 23.7728 43.6387C23.9202 43.1488 24.3542 42.6851 24.9673 42.3627C25.1901 42.2682 26.3716 41.8698 27.6644 41.445L28.5693 47.7419C28.5643 47.8606 28.5814 47.9792 28.6196 48.0917L28.6854 48.5492C28.6883 48.5697 28.6918 48.5902 28.6959 48.6096L30.8126 61.9984L24.2524 51.42ZM33.3045 65.5029L30.7683 49.4599C32.453 50.1342 34.5263 50.6809 35.1771 50.6809C35.8754 50.6809 38.0482 50.1271 39.7937 49.4361L37.3528 65.5029H33.3045ZM41.933 48.0972L42.9355 41.2811C44.366 41.7878 45.6806 42.2633 45.9031 42.3625C46.5119 42.684 46.9441 43.1464 47.0897 43.6327C47.1409 43.8038 47.156 43.9837 47.1341 44.161C47.1123 44.3383 47.0539 44.5091 46.9627 44.6627C46.2062 46.0261 44.645 47.2001 44.6302 47.2113C44.4845 47.3195 44.3726 47.4669 44.3075 47.6362C44.2424 47.8056 44.2268 47.99 44.2625 48.168C44.2982 48.3459 44.3838 48.51 44.5092 48.6411C44.6346 48.7723 44.7948 48.865 44.9709 48.9086C45.4444 49.0258 46.5673 49.3645 47.0157 49.6636C47.0585 49.7107 47.0844 49.7708 47.0894 49.8342C47.1441 50.1271 47.0592 50.6819 46.6382 51.2815C46.6288 51.2952 46.6199 51.3089 46.6109 51.3225L39.7923 62.1868L41.933 48.0972ZM59.6465 65.5029H39.971L48.2202 52.3596C48.8568 51.4419 49.1372 50.3676 48.9705 49.4808C48.9238 49.1979 48.8207 48.9273 48.6673 48.6851C48.5138 48.4429 48.3132 48.234 48.0773 48.071C47.7665 47.8748 47.4367 47.7103 47.0929 47.5801C47.6935 46.989 48.2126 46.3205 48.6364 45.5921C48.804 45.2932 48.9252 44.9705 48.9955 44.6351C54.1963 46.685 57.8751 50.0234 58.7162 53.5286C59.7516 57.8413 61.0101 62.9585 61.2224 63.8214C61.1676 64.6992 60.4275 65.5029 59.6465 65.5029Z" fill="#33484B"/>
<path d="M56.4194 58.966C56.6106 58.0199 56.4353 57.0365 55.9291 56.2147C55.4228 55.3929 54.6234 54.7939 53.6924 54.539C53.5147 50.9234 52.4925 46.8188 50.9559 43.6327C50.9013 43.5195 50.8249 43.4182 50.7312 43.3345C50.6374 43.2508 50.5281 43.1864 50.4094 43.1449C50.2908 43.1035 50.1651 43.0858 50.0396 43.093C49.9141 43.1001 49.7913 43.1319 49.6781 43.1865C49.5649 43.2411 49.4636 43.3174 49.3799 43.4112C49.2962 43.5049 49.2318 43.6143 49.1903 43.7329C49.1489 43.8516 49.1312 43.9772 49.1384 44.1027C49.1455 44.2282 49.1773 44.351 49.2319 44.4642C50.6478 47.4003 51.5938 51.1732 51.774 54.5143C51.1118 54.6776 50.5056 55.0156 50.0186 55.4932C49.5317 55.9708 49.1819 56.5703 49.0059 57.2292C48.8298 57.8882 48.8338 58.5823 49.0176 59.2391C49.2014 59.8959 49.5582 60.4913 50.0506 60.9631C50.5431 61.435 51.1532 61.7659 51.8173 61.9215C52.4814 62.077 53.175 62.0513 53.8258 61.8472C54.4766 61.6431 55.0606 61.268 55.5169 60.7611C55.9732 60.2542 56.285 59.634 56.4198 58.9655L56.4194 58.966ZM54.5431 58.5874C54.4564 59.0173 54.2234 59.4038 53.8837 59.6811C53.544 59.9583 53.1186 60.1093 52.6801 60.1081C52.2416 60.1069 51.8171 59.9538 51.4789 59.6747C51.1407 59.3956 50.9097 59.0079 50.8253 58.5776C50.7409 58.1473 50.8083 57.701 51.016 57.3148C51.2238 56.9287 51.559 56.6265 51.9646 56.4598C52.3701 56.2931 52.821 56.2721 53.2402 56.4005C53.6595 56.529 54.0213 56.7988 54.2639 57.164C54.4022 57.3711 54.4981 57.6035 54.546 57.8478C54.594 58.0922 54.593 58.3436 54.5431 58.5876V58.5874Z" fill="#FEBE41"/>
<path d="M23.2209 59.6059C23.213 59.5538 22.4126 54.3798 22.2449 52.6366C22.1131 51.2634 21.208 50.283 19.9912 50.1971L19.5321 50.1646C20.1073 48.0016 20.9735 45.7248 21.8059 44.2362C21.8672 44.1265 21.9063 44.0058 21.921 43.881C21.9357 43.7562 21.9256 43.6297 21.8914 43.5087C21.8572 43.3878 21.7996 43.2748 21.7217 43.1761C21.6438 43.0775 21.5473 42.9952 21.4376 42.9338C21.3279 42.8725 21.2072 42.8334 21.0823 42.8187C20.9575 42.804 20.831 42.8141 20.7101 42.8483C20.5891 42.8825 20.4761 42.9401 20.3775 43.018C20.2788 43.0959 20.1965 43.1924 20.1352 43.3021C19.1709 45.0267 18.2055 47.5937 17.5904 50.0273L16.6791 49.9628C15.4612 49.8765 14.4257 50.7205 14.1042 52.0628C13.7236 53.652 12.1729 58.7726 12.1574 58.824C12.1367 58.8923 12.1237 58.9627 12.1187 59.034C12.0961 59.3527 12.1365 59.6728 12.2377 59.976C12.3389 60.2791 12.4988 60.5593 12.7082 60.8007C12.9177 61.042 13.1727 61.2397 13.4586 61.3824C13.7445 61.5252 14.0558 61.6102 14.3745 61.6327C14.627 61.6493 14.8758 61.5653 15.0665 61.399C15.2571 61.2327 15.3742 60.9976 15.392 60.7452C15.4099 60.4928 15.327 60.2436 15.1616 60.0522C14.9963 59.8607 14.7618 59.7425 14.5095 59.7234C14.3861 59.7146 14.2699 59.662 14.1818 59.5752C14.0937 59.4883 14.0395 59.3728 14.0289 59.2496C14.2801 58.4187 15.6027 54.0269 15.9663 52.5093C15.9826 52.441 16.1341 51.8438 16.5447 51.8728L19.8571 52.1071C20.2627 52.1358 20.3334 52.7505 20.3403 52.8205C20.4998 54.4788 21.1787 58.9172 21.3093 59.7658C21.2816 59.8863 21.2118 59.9929 21.1124 60.0665C21.013 60.14 20.8906 60.1756 20.7672 60.1668C20.514 60.1489 20.2641 60.2322 20.0724 60.3986C19.8807 60.5649 19.7629 60.8006 19.7449 61.0538C19.727 61.307 19.8103 61.5569 19.9767 61.7486C20.143 61.9403 20.3787 62.0581 20.6319 62.0761C20.6907 62.0803 20.7492 62.0824 20.8076 62.0824C21.4224 62.0812 22.0141 61.8474 22.4635 61.4278C22.913 61.0082 23.187 60.4341 23.2305 59.8208C23.2355 59.749 23.2322 59.6769 23.2209 59.6059Z" fill="#FEBE41"/>
</svg>
