<svg width="71" height="71" viewBox="0 0 71 71" fill="none" xmlns="http://www.w3.org/2000/svg">
<path d="M12.2753 12.2109C10.1486 12.2109 8.37374 14.0066 8.37374 16.1331V49.4557C6.18624 49.5643 4.42393 51.4278 4.42393 53.6627C4.42895 54.7765 4.87293 55.8435 5.65956 56.632C6.44619 57.4206 7.51203 57.8672 8.62585 57.875H63.356C64.4018 57.8707 65.4087 57.4778 66.1811 56.7728C66.9536 56.0678 67.4364 55.1009 67.536 54.0598C67.6356 53.0188 67.3447 51.9779 66.72 51.1392C66.0952 50.3005 65.181 49.724 64.155 49.5215V16.1331C64.155 14.0066 62.3913 12.2109 60.2641 12.2109H12.2753ZM65.895 53.6014C65.898 54.2892 65.6313 54.9506 65.1522 55.444C64.6818 55.935 64.0358 56.2192 63.356 56.2344H8.62585C7.22585 56.2344 6.08685 55.0366 6.08685 53.6367C6.08685 52.2369 7.22585 51.0391 8.62585 51.0391H26.5223C26.9072 51.0391 27.2203 51.4062 27.2203 51.791C27.2203 53.0804 28.2693 54.1836 29.5582 54.1836H41.7043C42.9938 54.1836 44.0428 53.0804 44.0428 51.791C44.0428 51.4062 44.3559 51.0391 44.7401 51.0391H63.356C64.0313 51.0458 64.6768 51.3187 65.1521 51.7985C65.6275 52.2782 65.8944 52.9261 65.895 53.6014ZM62.5144 16.1331V49.3984H44.7409C43.4514 49.3984 42.403 50.5015 42.403 51.791C42.403 52.1759 42.09 52.543 41.7051 52.543H29.559C29.1741 52.543 28.8617 52.1759 28.8617 51.791C28.8617 50.5015 27.8127 49.3984 26.5232 49.3984H10.0144V16.1331C10.0226 15.5341 10.2629 14.9617 10.6845 14.5362C11.1062 14.1107 11.6764 13.8653 12.2753 13.8516H60.2636C61.4861 13.8516 62.5144 14.9111 62.5144 16.1331Z" fill="#33484B"/>
<path d="M59.0967 18.3633C59.0967 18.1457 59.0103 17.9371 58.8564 17.7832C58.7026 17.6294 58.4939 17.543 58.2764 17.543H14.2529C14.0354 17.543 13.8267 17.6294 13.6729 17.7832C13.519 17.9371 13.4326 18.1457 13.4326 18.3633V45.5703C13.4326 45.7879 13.519 45.9965 13.6729 46.1504C13.8267 46.3042 14.0354 46.3906 14.2529 46.3906H58.2764C58.4939 46.3906 58.7026 46.3042 58.8564 46.1504C59.0103 45.9965 59.0967 45.7879 59.0967 45.5703V18.3633ZM57.4561 44.75H15.0732V19.1836H57.4561V44.75Z" fill="#33484B"/>
<path d="M36.6313 20.9356C36.519 20.8806 36.3955 20.8519 36.2704 20.8519C36.1453 20.8519 36.0218 20.8806 35.9095 20.9356L27.7037 24.9493C27.5655 25.0166 27.4489 25.1213 27.3671 25.2516C27.2853 25.3818 27.2417 25.5324 27.2412 25.6862V33.3648C27.2667 34.3582 27.5056 35.3344 27.9415 36.2273C28.5249 37.4827 29.3992 38.5694 30.338 39.2089L35.8068 42.9349C35.943 43.0277 36.104 43.0774 36.2689 43.0774C36.4337 43.0774 36.5948 43.0277 36.731 42.9349L42.1982 39.2086C43.9325 38.0271 45.2881 35.46 45.2881 33.3644V25.6971C45.2886 25.5439 45.2461 25.3937 45.1654 25.2635C45.0848 25.1332 44.9691 25.0283 44.8317 24.9606L36.6313 20.9356ZM43.6475 33.3644C43.6475 34.92 42.5622 36.9753 41.2743 37.8526L36.2686 41.2636L31.2624 37.8522C30.5713 37.3814 29.8844 36.5152 29.429 35.5352C29.0962 34.8579 28.9099 34.1181 28.8821 33.364V26.1972L36.2649 22.5852L43.6477 26.2083L43.6475 33.3644Z" fill="#FEBE41"/>
<path d="M35.4446 24.931V25.7103C33.9407 26.0816 32.7129 27.4906 32.7129 29.1683C32.7142 30.1109 33.0893 31.0144 33.756 31.6808C34.4226 32.3472 35.3263 32.722 36.2689 32.723C36.7693 32.7311 37.2466 32.9349 37.5985 33.2907C37.9505 33.6465 38.1491 34.1259 38.1518 34.6264C38.1545 35.1268 37.9611 35.6084 37.613 35.968C37.265 36.3276 36.7899 36.5366 36.2896 36.5501C36.2831 36.5501 36.2768 36.5492 36.2701 36.5492C36.2634 36.5492 36.2564 36.55 36.2504 36.5501C35.7465 36.5445 35.2651 36.3405 34.9106 35.9824C34.556 35.6243 34.3568 35.141 34.3562 34.637C34.3562 34.4191 34.2696 34.2101 34.1155 34.056C33.9614 33.9019 33.7524 33.8153 33.5345 33.8153C33.3166 33.8153 33.1076 33.9019 32.9535 34.056C32.7994 34.2101 32.7128 34.4191 32.7128 34.637C32.7128 36.3144 33.9407 37.7226 35.4446 38.0946V38.997C35.4446 39.2145 35.531 39.4232 35.6849 39.577C35.8387 39.7309 36.0473 39.8173 36.2649 39.8173C36.4825 39.8173 36.6911 39.7309 36.845 39.577C36.9988 39.4232 37.0852 39.2145 37.0852 38.997V38.0946C38.5891 37.7232 39.8223 36.3143 39.8223 34.6365C39.8216 33.6942 39.447 32.7906 38.7808 32.1242C38.1146 31.4578 37.2112 31.0829 36.2689 31.0818C35.8904 31.0816 35.5204 30.9691 35.2058 30.7586C34.8912 30.5482 34.6461 30.2491 34.5014 29.8994C34.3567 29.5496 34.319 29.1648 34.393 28.7936C34.467 28.4224 34.6493 28.0814 34.9171 27.8139C35.1848 27.5463 35.5259 27.3641 35.8971 27.2904C36.2684 27.2166 36.6532 27.2546 37.0029 27.3995C37.3525 27.5444 37.6514 27.7897 37.8617 28.1045C38.0719 28.4192 38.1842 28.7892 38.1842 29.1677C38.1828 29.2762 38.2029 29.3838 38.2434 29.4844C38.284 29.585 38.3441 29.6766 38.4203 29.7537C38.4965 29.8309 38.5872 29.8922 38.6873 29.934C38.7874 29.9759 38.8947 29.9974 39.0032 29.9974C39.1116 29.9974 39.219 29.9759 39.3191 29.934C39.4191 29.8922 39.5099 29.8309 39.5861 29.7537C39.6623 29.6766 39.7224 29.585 39.7629 29.4844C39.8035 29.3838 39.8236 29.2762 39.8222 29.1677C39.8222 27.4901 38.5891 26.081 37.0852 25.7097V24.9304C37.0852 24.7129 36.9988 24.5042 36.845 24.3504C36.6911 24.1965 36.4825 24.1101 36.2649 24.1101C36.0473 24.1101 35.8387 24.1965 35.6849 24.3504C35.531 24.5042 35.4446 24.7129 35.4446 24.9304V24.931Z" fill="#FEBE41"/>
</svg>
