<svg width="307" height="304" viewBox="0 0 307 304" fill="none" xmlns="http://www.w3.org/2000/svg">
<path d="M152.67 83.1345C114.295 83.1345 83.1804 114.155 83.1804 152.413C83.1804 190.672 114.295 221.692 152.67 221.692C191.045 221.692 222.16 190.672 222.16 152.413C221.953 114.155 190.838 83.1345 152.67 83.1345Z" fill="#3880FF"/>
<path d="M252.238 89.339C269.766 89.339 283.975 75.1729 283.975 57.6982C283.975 40.2235 269.766 26.0574 252.238 26.0574C234.71 26.0574 220.501 40.2235 220.501 57.6982C220.501 75.1729 234.71 89.339 252.238 89.339Z" fill="#3880FF"/>
<path d="M291.235 89.3388L289.991 86.4435L287.916 88.9252C282.73 94.7156 276.093 99.2653 268.832 101.954L266.758 102.781L267.588 104.849C274.018 119.946 277.13 136.076 277.13 152.414C277.13 220.865 221.33 276.702 152.463 276.702C83.5953 276.702 28.0034 220.865 28.0034 152.414C28.0034 83.9619 83.8027 28.1252 152.67 28.1252C171.339 28.1252 189.178 32.2612 205.98 40.1197L207.847 40.9469L208.677 38.8789C211.789 31.6408 216.559 25.4367 222.782 20.4735L225.272 18.4054L222.368 16.9578C200.587 5.79047 177.147 0 152.463 0C68.4527 0 0 68.2449 0 152C0 235.755 68.4527 304 152.463 304C236.473 304 304.926 235.755 304.926 152C304.926 130.493 300.362 109.399 291.235 89.3388Z" fill="#3880FF"/>
</svg>
