<svg width="71" height="71" viewBox="0 0 71 71" fill="none" xmlns="http://www.w3.org/2000/svg">
<path d="M32.1621 55.3252H30.795C30.8257 55.6497 30.856 55.9695 30.8859 56.2847H32.253C32.2232 55.9692 32.1928 55.6494 32.1621 55.3252Z" fill="#D4E1F4"/>
<path d="M62.374 40.5615V30.4025C62.3745 30.2976 62.3537 30.1936 62.3128 30.097C62.272 30.0003 62.2119 29.913 62.1363 29.8402C62.0607 29.7674 61.9712 29.7107 61.873 29.6736C61.7749 29.6364 61.6703 29.6196 61.5654 29.624H59.3662V9.17869C59.3619 8.95154 59.272 8.73438 59.1144 8.57069C58.9569 8.407 58.7433 8.30885 58.5165 8.2959H55.4084C54.9555 8.2959 54.581 8.72561 54.581 9.17869V29.624H47.8025C47.3496 29.624 46.9248 29.9496 46.9248 30.4025V34.4092H48.5654V31.2646H60.7334V40.5615H62.374ZM56.2216 9.93652H57.7255V29.624H56.2216V9.93652Z" fill="#FEBE41"/>
<path d="M24.9334 4.95996C24.63 4.73218 24.2847 4.56639 23.9172 4.47206C23.5497 4.37773 23.1673 4.35671 22.7917 4.4102C22.4161 4.46369 22.0547 4.59063 21.7281 4.78379C21.4016 4.97695 21.1163 5.23253 20.8885 5.53595C20.8773 5.55099 20.8663 5.56603 20.8553 5.58121C20.4745 5.50268 20.0816 5.50194 19.7005 5.57902C19.3193 5.6561 18.9577 5.80942 18.6373 6.02977C18.3168 6.25012 18.0442 6.53295 17.8359 6.86129C17.6275 7.18962 17.4876 7.55668 17.4246 7.94042C16.8407 7.98843 16.2852 8.21293 15.8318 8.58412C15.3785 8.95531 15.0488 9.45563 14.8865 10.0186C14.7243 10.5816 14.7371 11.1807 14.9233 11.7362C15.1096 12.2917 15.4604 12.7775 15.9292 13.1289C15.9883 13.1732 16.0487 13.2151 16.1106 13.2545C16.2208 13.6181 16.4015 13.9563 16.6425 14.2499C16.8835 14.5436 17.1799 14.7868 17.5149 14.9658C17.85 15.1448 18.217 15.2561 18.595 15.2932C18.973 15.3303 19.3547 15.2925 19.7181 15.182C20.1319 15.3632 20.5828 15.4439 21.0338 15.4175C21.4848 15.3911 21.9232 15.2583 22.313 15.03C22.765 15.3089 23.2858 15.4565 23.8169 15.4563C23.9553 15.4562 24.0934 15.4463 24.2304 15.4267C24.7961 15.3461 25.3252 15.0996 25.7507 14.7182C26.1763 14.3369 26.4792 13.8379 26.6212 13.2844C26.7631 12.7309 26.7378 12.1477 26.5483 11.6087C26.3587 11.0696 26.0136 10.5988 25.5565 10.2559C25.4792 10.1979 25.3997 10.1441 25.3178 10.0944C25.3448 9.82018 25.3328 9.54349 25.2821 9.27261C25.5653 8.97766 25.7827 8.62596 25.9199 8.24076C26.0572 7.85555 26.111 7.44562 26.0781 7.03804C26.0451 6.63046 25.926 6.23453 25.7286 5.87639C25.5313 5.51826 25.2602 5.20609 24.9332 4.9605L24.9334 4.95996ZM24.8211 13.3158C24.6223 13.5805 24.3265 13.7554 23.9987 13.802C23.6709 13.8486 23.338 13.7631 23.0733 13.5643C23.0189 13.5311 22.9676 13.4932 22.9199 13.451C22.8437 13.374 22.7524 13.3135 22.6517 13.2734C22.5511 13.2332 22.4432 13.2143 22.3349 13.2178H22.324C22.2175 13.2137 22.1112 13.2309 22.0115 13.2685C21.9117 13.306 21.8205 13.3632 21.7432 13.4365C21.5423 13.6327 21.2813 13.7555 21.0022 13.7853C20.723 13.815 20.442 13.75 20.2043 13.6006C20.0875 13.5263 19.9538 13.4828 19.8157 13.4741C19.6776 13.4653 19.5395 13.4916 19.4143 13.5505C19.2372 13.6344 19.0429 13.6755 18.8469 13.6705C18.651 13.6655 18.459 13.6146 18.2865 13.5217C18.1139 13.4289 17.9655 13.2968 17.8534 13.1361C17.7412 12.9754 17.6684 12.7905 17.6408 12.5965C17.621 12.4576 17.5659 12.3262 17.4809 12.2146C17.3959 12.103 17.2837 12.0151 17.155 11.9591C17.0694 11.9215 16.9885 11.8741 16.914 11.8176C16.6797 11.642 16.5146 11.3895 16.4476 11.1044C16.3806 10.8193 16.416 10.5198 16.5475 10.2581C16.679 9.99648 16.8983 9.78939 17.1671 9.67309C17.4359 9.55679 17.737 9.53868 18.0177 9.62193C18.154 9.66246 18.2985 9.66686 18.437 9.63471C18.5755 9.60256 18.7033 9.53495 18.8078 9.43853C18.9123 9.3421 18.99 9.22017 19.0331 9.08469C19.0763 8.9492 19.0835 8.80483 19.0541 8.66572C19.0052 8.43362 19.0237 8.19242 19.1071 7.97041C19.1906 7.74841 19.3356 7.55482 19.5253 7.41236C19.7149 7.26991 19.9412 7.18449 20.1777 7.16614C20.4141 7.1478 20.6509 7.19728 20.8602 7.30878C20.9648 7.36475 21.0803 7.39735 21.1988 7.40436C21.3172 7.41136 21.4357 7.3926 21.5462 7.34936C21.6567 7.30612 21.7564 7.23943 21.8387 7.1539C21.9209 7.06837 21.9835 6.96602 22.0224 6.85392C22.064 6.73473 22.124 6.62275 22.2001 6.52197C22.3091 6.37635 22.4486 6.25631 22.6088 6.17024C22.7691 6.08417 22.9462 6.03416 23.1278 6.02371C23.3094 6.01326 23.491 6.04261 23.6601 6.10972C23.8292 6.17683 23.9815 6.28007 24.1065 6.41222C24.2315 6.54437 24.3261 6.70224 24.3837 6.87477C24.4413 7.04731 24.4605 7.23034 24.4399 7.41107C24.4193 7.5918 24.3596 7.76585 24.2647 7.92105C24.1698 8.07625 24.0422 8.20885 23.8907 8.30957C23.7309 8.4159 23.6135 8.57492 23.5588 8.75893C23.5042 8.94294 23.5158 9.1403 23.5916 9.31664C23.7211 9.61893 23.726 9.96011 23.6053 10.266C23.5622 10.3737 23.5425 10.4892 23.5473 10.605C23.5522 10.7209 23.5816 10.8344 23.6335 10.938C23.6854 11.0417 23.7587 11.1331 23.8486 11.2064C23.9384 11.2797 24.0428 11.3331 24.1548 11.363C24.3058 11.4039 24.4475 11.4735 24.5722 11.5681C24.8367 11.7672 25.0114 12.063 25.0581 12.3908C25.1048 12.7185 25.0195 13.0514 24.8211 13.3163V13.3158Z" fill="#33484B"/>
<path d="M36.9444 41.0975C36.9398 40.8793 36.849 40.6717 36.692 40.52C36.5349 40.3684 36.3242 40.2851 36.1059 40.2882H28.6326C28.415 40.2882 28.2064 40.3746 28.0525 40.5284C27.8987 40.6823 27.8123 40.8909 27.8123 41.1085C27.8123 41.326 27.8987 41.5347 28.0525 41.6885C28.2064 41.8424 28.415 41.9288 28.6326 41.9288H35.3038V45.6202H29.1346C28.917 45.6202 28.7084 45.7066 28.5546 45.8605C28.4007 46.0143 28.3143 46.223 28.3143 46.4405C28.3143 46.6581 28.4007 46.8667 28.5546 47.0206C28.7084 47.1744 28.917 47.2608 29.1346 47.2608H36.1059C36.5588 47.2608 36.9444 46.9487 36.9444 46.4952V41.0975Z" fill="#33484B"/>
<path d="M36.9443 49.109C36.9443 48.656 36.5588 48.3545 36.1058 48.3545H29.4248V49.9951H35.3037V53.6865L29.8973 53.6839L29.8919 55.3246L36.1054 55.3274C36.3256 55.3276 36.537 55.2414 36.6944 55.0873C36.8511 54.9345 36.941 54.7258 36.9443 54.5068V49.109Z" fill="#33484B"/>
<path d="M30.6552 61.7529V63.3936H36.1058C36.3307 63.3819 36.5427 63.2849 36.6985 63.1223C36.8543 62.9597 36.9422 62.7438 36.9443 62.5186V57.1205C36.9408 56.8994 36.8512 56.6884 36.6947 56.5323C36.5381 56.3761 36.3269 56.2871 36.1058 56.2842H30.1084V57.9248H35.3037V61.7529H30.6552Z" fill="#33484B"/>
<path d="M59.9131 65.8545H53.0771V51.6358H59.9131V65.8545ZM63.7412 65.8545H61.5537V50.8579C61.5537 50.4053 61.2338 49.9952 60.7812 49.9952H52.2746C52.051 50.0042 51.8394 50.0988 51.6834 50.2593C51.5275 50.4198 51.4391 50.6341 51.4365 50.8579V65.8545H49.1123V41.8618C49.1144 41.7042 49.0705 41.5493 48.986 41.4163C48.9015 41.2832 48.7801 41.1777 48.6365 41.1126L38.1898 36.4628L44.0004 33.6258L63.7412 42.395V65.8545ZM66.749 65.8545H65.3818V41.8618C65.3765 41.7009 65.3253 41.5449 65.2342 41.4121C65.1431 41.2794 65.016 41.1754 64.8678 41.1126L44.3066 31.9715C44.1959 31.9225 44.0757 31.8981 43.9546 31.9003C43.8335 31.9024 43.7143 31.9309 43.6053 31.9839L36.2457 35.5932L28.6482 32.2149C28.7043 32.8288 28.7608 33.4545 28.8178 34.0921L47.4717 42.395V65.8545H7.13965V42.3581L13.5859 39.4993C13.6447 38.8745 13.7021 38.2533 13.7582 37.6358L6.00488 41.0756C5.85781 41.1392 5.73201 41.2435 5.64236 41.3763C5.55271 41.509 5.50297 41.6647 5.49902 41.8249V65.8545H3.8584C3.64084 65.8545 3.43219 65.941 3.27835 66.0948C3.12451 66.2486 3.03809 66.4573 3.03809 66.6748C3.03809 66.8924 3.12451 67.1011 3.27835 67.2549C3.43219 67.4087 3.64084 67.4952 3.8584 67.4952H66.749C66.9666 67.4952 67.1752 67.4087 67.3291 67.2549C67.4829 67.1011 67.5693 66.8924 67.5693 66.6748C67.5693 66.4573 67.4829 66.2486 67.3291 66.0948C67.1752 65.941 66.9666 65.8545 66.749 65.8545Z" fill="#33484B"/>
<path d="M28.8178 34.0919C28.7604 33.4548 28.7038 32.8291 28.6482 32.2148C28.0932 26.0324 27.6803 21.1501 27.6475 19.958C27.6264 19.027 27.2393 18.1419 26.57 17.4944C25.9008 16.847 25.0034 16.4893 24.0723 16.499H18.8277C17.896 16.4913 16.9987 16.8505 16.3297 17.4991C15.6607 18.1476 15.2738 19.0333 15.2525 19.9648C15.2115 21.4687 14.5471 29.0306 13.7582 37.6357C13.7021 38.2523 13.6447 38.8734 13.5859 39.4992C12.5564 50.68 11.3807 62.9806 11.1045 65.8544H12.7506C13.0664 62.565 14.2764 49.8911 15.3086 38.6474H27.5914C28.6236 49.8898 29.8363 62.5636 30.1494 65.8544H31.7982C31.4783 62.5212 29.9307 46.3624 28.8178 34.0919ZM16.8932 19.9867C16.9059 19.4856 17.1166 19.0099 17.4791 18.6637C17.8417 18.3176 18.3266 18.1291 18.8277 18.1396H24.0723C24.5736 18.1289 25.0588 18.3172 25.4216 18.6634C25.7845 19.0095 25.9954 19.4854 26.0082 19.9867C26.0342 20.9341 26.2857 24.0185 26.6549 28.2568H16.2451C16.6143 24.0185 16.8672 20.9218 16.8932 19.9867ZM16.1002 29.8974H26.7984C26.8367 30.3076 26.875 30.8544 26.9147 31.2646H15.984C16.0236 30.8544 16.0633 30.3076 16.1002 29.8974ZM15.459 37.0068C15.5889 35.6396 15.7147 34.2724 15.8363 32.9052H27.0623C27.1826 34.2724 27.3089 35.6396 27.441 37.0068H15.459Z" fill="#FEBE41"/>
</svg>
