<svg width="71" height="71" viewBox="0 0 71 71" fill="none" xmlns="http://www.w3.org/2000/svg">
<path d="M6.01459 38.6522C6.8288 38.6511 7.61876 38.375 8.25648 37.8688C8.89421 37.3626 9.34233 36.6559 9.52826 35.8632H27.288V34.2226H9.52826C9.37385 33.5619 9.03633 32.9582 8.55442 32.4807C8.07251 32.0032 7.46574 31.6712 6.80373 31.5228C6.14172 31.3744 5.45129 31.4157 4.81166 31.6418C4.17203 31.868 3.60912 32.2699 3.18751 32.8014C2.7659 33.3329 2.50267 33.9725 2.42803 34.6469C2.3534 35.3212 2.47037 36.0029 2.76553 36.6137C3.0607 37.2246 3.52209 37.7399 4.09678 38.1004C4.67146 38.461 5.33616 38.6523 6.01459 38.6522ZM6.01459 33.0752C6.40402 33.0752 6.7847 33.1907 7.10848 33.4071C7.43227 33.6235 7.6846 33.931 7.83358 34.2908C7.98256 34.6506 8.02148 35.0465 7.94543 35.4285C7.86938 35.8104 7.68176 36.1612 7.40632 36.4365C7.13088 36.7118 6.77998 36.8992 6.398 36.975C6.01603 37.0509 5.62015 37.0117 5.26042 36.8625C4.9007 36.7134 4.5933 36.4609 4.3771 36.137C4.16091 35.8131 4.04562 35.4323 4.04584 35.0429C4.04628 34.5209 4.25384 34.0204 4.62295 33.6512C4.99207 33.2821 5.49258 33.0746 6.01459 33.0741V33.0752Z" fill="#33484B"/>
<path d="M64.9678 31.4336C64.1536 31.4348 63.3636 31.7108 62.7259 32.217C62.0882 32.7233 61.64 33.43 61.4541 34.2227H43.6943V35.8633H61.4541C61.6085 36.5239 61.9461 37.1276 62.428 37.6052C62.9099 38.0827 63.5166 38.4147 64.1787 38.5631C64.8407 38.7115 65.5311 38.6702 66.1707 38.444C66.8104 38.2179 67.3733 37.816 67.7949 37.2845C68.2165 36.7529 68.4797 36.1133 68.5544 35.439C68.629 34.7647 68.512 34.083 68.2169 33.4721C67.9217 32.8613 67.4603 32.346 66.8856 31.9854C66.3109 31.6248 65.6462 31.4336 64.9678 31.4336ZM64.9678 37.0106C64.5784 37.0106 64.1977 36.8951 63.8739 36.6788C63.5501 36.4624 63.2978 36.1548 63.1488 35.795C62.9998 35.4352 62.9609 35.0393 63.037 34.6574C63.113 34.2755 63.3006 33.9247 63.5761 33.6494C63.8515 33.3741 64.2024 33.1867 64.5844 33.1108C64.9664 33.035 65.3622 33.0741 65.722 33.2233C66.0817 33.3725 66.3891 33.625 66.6053 33.9489C66.8215 34.2728 66.9368 34.6535 66.9366 35.043C66.9361 35.565 66.7286 36.0655 66.3594 36.4346C65.9903 36.8037 65.4898 37.0113 64.9678 37.0117V37.0106Z" fill="#33484B"/>
<path d="M36.3114 26.8399V9.08011C37.174 8.87879 37.9325 8.36732 38.4424 7.64305C38.9523 6.91877 39.1781 6.03228 39.0768 5.15232C38.9755 4.27236 38.5541 3.46038 37.8929 2.87095C37.2317 2.28153 36.3769 1.95581 35.4911 1.95581C34.6053 1.95581 33.7505 2.28153 33.0893 2.87095C32.4281 3.46038 32.0067 4.27236 31.9054 5.15232C31.8041 6.03228 32.0299 6.91877 32.5398 7.64305C33.0497 8.36732 33.8082 8.87879 34.6708 9.08011V26.8399H36.3114ZM33.5224 5.56643C33.5221 5.177 33.6374 4.79624 33.8535 4.47232C34.0697 4.1484 34.3771 3.89587 34.7368 3.74667C35.0966 3.59747 35.4925 3.55831 35.8744 3.63413C36.2564 3.70996 36.6073 3.89737 36.8828 4.17265C37.1582 4.44794 37.3459 4.79873 37.4219 5.18067C37.498 5.5626 37.4591 5.95851 37.3101 6.31833C37.1611 6.67814 36.9088 6.98569 36.585 7.20207C36.2612 7.41846 35.8805 7.53395 35.4911 7.53395C34.9693 7.53352 34.469 7.32613 34.0999 6.95728C33.7308 6.58842 33.5231 6.08823 33.5224 5.56643Z" fill="#33484B"/>
<path d="M35.4911 68.1289C36.3771 68.1296 37.2325 67.8044 37.8941 67.215C38.5557 66.6257 38.9774 65.8136 39.0788 64.9333C39.1802 64.0531 38.9541 63.1664 38.4438 62.4421C37.9334 61.7178 37.1744 61.2066 36.3114 61.0059V43.2461H34.6708V61.0059C33.8078 61.2066 33.0488 61.7178 32.5384 62.4421C32.0281 63.1664 31.802 64.0531 31.9034 64.9333C32.0048 65.8136 32.4265 66.6257 33.0881 67.215C33.7497 67.8044 34.6051 68.1296 35.4911 68.1289ZM35.4911 62.552C35.8805 62.552 36.2612 62.6675 36.585 62.8839C36.9088 63.1003 37.1611 63.4078 37.3101 63.7676C37.4591 64.1275 37.498 64.5234 37.4219 64.9053C37.3459 65.2872 37.1582 65.638 36.8828 65.9133C36.6073 66.1886 36.2564 66.376 35.8744 66.4518C35.4924 66.5277 35.0966 66.4885 34.7368 66.3393C34.3771 66.1901 34.0697 65.9376 33.8535 65.6137C33.6374 65.2897 33.5221 64.909 33.5223 64.5195C33.5231 63.9977 33.7308 63.4976 34.0999 63.1287C34.469 62.7598 34.9693 62.5525 35.4911 62.552Z" fill="#33484B"/>
<path d="M53.2704 16.104L40.673 28.7017L41.833 29.8619L54.431 17.2639C55.1833 17.7315 56.0813 17.9061 56.954 17.7545C57.8267 17.6029 58.6132 17.1357 59.1638 16.4418C59.7143 15.7479 59.9905 14.8757 59.9397 13.9914C59.8889 13.1071 59.5147 12.2723 58.8883 11.646C58.2619 11.0197 57.4271 10.6456 56.5428 10.5949C55.6585 10.5442 54.7864 10.8205 54.0925 11.3711C53.3987 11.9218 52.9316 12.7083 52.7801 13.581C52.6286 14.4538 52.8033 15.3517 53.2709 16.104H53.2704ZM54.943 12.8077C55.2183 12.5323 55.5691 12.3446 55.951 12.2686C56.3329 12.1925 56.7289 12.2315 57.0887 12.3804C57.4485 12.5294 57.756 12.7818 57.9724 13.1055C58.1888 13.4293 58.3043 13.81 58.3043 14.1994C58.3043 14.5889 58.1888 14.9695 57.9724 15.2933C57.756 15.6171 57.4485 15.8694 57.0887 16.0184C56.7289 16.1674 56.3329 16.2063 55.951 16.1303C55.5691 16.0542 55.2183 15.8666 54.943 15.5912C54.7596 15.4088 54.6141 15.1919 54.5147 14.9531C54.4154 14.7142 54.3643 14.4581 54.3643 14.1994C54.3643 13.9408 54.4154 13.6847 54.5147 13.4458C54.6141 13.207 54.7596 12.9901 54.943 12.8077Z" fill="#33484B"/>
<path d="M29.1502 40.2246L16.5522 52.8226C15.7999 52.355 14.9019 52.1804 14.0292 52.332C13.1565 52.4836 12.37 52.9508 11.8195 53.6447C11.2689 54.3386 10.9927 55.2108 11.0435 56.0951C11.0943 56.9794 11.4685 57.8142 12.0949 58.4405C12.7213 59.0668 13.5561 59.4409 14.4404 59.4916C15.3248 59.5423 16.1969 59.266 16.8907 58.7154C17.5845 58.1647 18.0517 57.3782 18.2032 56.5055C18.3547 55.6327 18.18 54.7348 17.7123 53.9825L30.3097 41.3843L29.1502 40.2246ZM16.0397 57.2782C15.7645 57.5532 15.4139 57.7404 15.0324 57.8161C14.6508 57.8919 14.2554 57.8528 13.896 57.7038C13.5367 57.5549 13.2295 57.3027 13.0135 56.9793C12.7974 56.6558 12.6821 56.2755 12.6821 55.8865C12.6821 55.4975 12.7974 55.1172 13.0135 54.7938C13.2295 54.4703 13.5367 54.2182 13.896 54.0692C14.2554 53.9202 14.6508 53.8812 15.0324 53.9569C15.4139 54.0327 15.7645 54.2199 16.0397 54.4948C16.4082 54.8642 16.6152 55.3647 16.6152 55.8865C16.6152 56.4083 16.4082 56.9088 16.0397 57.2782Z" fill="#33484B"/>
<path d="M54.4303 52.822L41.8324 40.2246L40.6723 41.3848L53.2702 53.9825C52.8411 54.6745 52.6583 55.4912 52.7513 56.3002C52.8443 57.1091 53.2078 57.863 53.7828 58.4395C54.2626 58.9197 54.868 59.2548 55.5296 59.4065C56.1912 59.5582 56.8821 59.5202 57.5231 59.297C58.1641 59.0738 58.7292 58.6743 59.1535 58.1445C59.5777 57.6147 59.844 56.976 59.9217 56.3017C59.9994 55.6274 59.8855 54.9449 59.5929 54.3324C59.3002 53.72 58.8409 53.2024 58.2675 52.8392C57.6941 52.476 57.0299 52.2819 56.3511 52.279C55.6724 52.2762 55.0066 52.4648 54.4302 52.8233L54.4303 52.822ZM57.7265 57.2782C57.357 57.6468 56.8565 57.8537 56.3347 57.8537C55.8128 57.8537 55.3123 57.6468 54.9429 57.2782C54.6674 57.0029 54.4798 56.6522 54.4038 56.2702C54.3277 55.8883 54.3666 55.4924 54.5156 55.1326C54.6646 54.7728 54.9169 54.4652 55.2407 54.2489C55.5645 54.0325 55.9452 53.917 56.3346 53.917C56.724 53.917 57.1047 54.0325 57.4285 54.2489C57.7523 54.4652 58.0046 54.7728 58.1536 55.1326C58.3026 55.4924 58.3415 55.8883 58.2654 56.2702C58.1894 56.6522 58.0018 57.0029 57.7263 57.2782H57.7265Z" fill="#33484B"/>
<path d="M14.6479 17.8064C15.3208 17.8067 15.9805 17.6188 16.5522 17.2639L29.1502 29.8613L30.3102 28.7011L17.7123 16.1034C18.1411 15.4115 18.3238 14.5951 18.2308 13.7864C18.1377 12.9777 17.7744 12.2241 17.1997 11.6476C16.7803 11.2272 16.2636 10.9168 15.6954 10.744C15.1272 10.5711 14.5252 10.5411 13.9427 10.6566C13.3601 10.7721 12.8151 11.0296 12.3559 11.4061C11.8967 11.7827 11.5375 12.2668 11.3102 12.8155C11.0829 13.3641 10.9945 13.9604 11.0528 14.5514C11.1111 15.1424 11.3143 15.7099 11.6445 16.2035C11.9746 16.6972 12.4214 17.1017 12.9454 17.3813C13.4693 17.6609 14.0542 17.8069 14.648 17.8064H14.6479ZM13.2561 12.8077C13.5314 12.5322 13.8822 12.3446 14.2641 12.2686C14.646 12.1925 15.0419 12.2314 15.4017 12.3804C15.7616 12.5294 16.0691 12.7817 16.2855 13.1055C16.5019 13.4293 16.6173 13.81 16.6173 14.1994C16.6173 14.5888 16.5019 14.9695 16.2855 15.2933C16.0691 15.6171 15.7616 15.8694 15.4017 16.0184C15.0419 16.1674 14.646 16.2063 14.2641 16.1303C13.8822 16.0542 13.5314 15.8666 13.2561 15.5911C13.0726 15.4088 12.9271 15.1919 12.8277 14.9531C12.7284 14.7142 12.6772 14.4581 12.6772 14.1994C12.6772 13.9407 12.7284 13.6846 12.8277 13.4458C12.9271 13.2069 13.0726 12.9901 13.2561 12.8077Z" fill="#33484B"/>
<path d="M28.0495 35.6232C28.1257 35.547 28.1861 35.4565 28.2273 35.357C28.2686 35.2575 28.2898 35.1508 28.2898 35.0431C28.2898 34.9353 28.2686 34.8286 28.2273 34.7291C28.1861 34.6296 28.1257 34.5391 28.0495 34.463L25.3792 31.7927C25.2247 31.6423 25.0171 31.5588 24.8015 31.5603C24.5859 31.5618 24.3795 31.6481 24.227 31.8006C24.0746 31.9531 23.9883 32.1595 23.9868 32.3751C23.9854 32.5907 24.0689 32.7982 24.2193 32.9528L26.3094 35.0431L24.2193 37.1334C24.1414 37.2091 24.0794 37.2996 24.0368 37.3996C23.9942 37.4996 23.9718 37.607 23.9711 37.7156C23.9703 37.8243 23.9912 37.932 24.0324 38.0326C24.0737 38.1331 24.1345 38.2244 24.2113 38.3013C24.2881 38.3781 24.3795 38.4389 24.48 38.4802C24.5805 38.5214 24.6882 38.5423 24.7969 38.5415C24.9056 38.5408 25.013 38.5185 25.113 38.4759C25.2129 38.4333 25.3034 38.3713 25.3792 38.2934L28.0495 35.6232Z" fill="#FEBE41"/>
<path d="M42.9331 34.4628C42.8569 34.539 42.7964 34.6295 42.7552 34.729C42.714 34.8285 42.6927 34.9352 42.6927 35.0429C42.6927 35.1507 42.714 35.2574 42.7552 35.3569C42.7964 35.4564 42.8569 35.5469 42.9331 35.623L45.6033 38.2933C45.6791 38.3712 45.7696 38.4332 45.8696 38.4758C45.9695 38.5184 46.077 38.5407 46.1856 38.5414C46.2943 38.5422 46.402 38.5213 46.5025 38.48C46.6031 38.4388 46.6944 38.378 46.7712 38.3011C46.8481 38.2243 46.9089 38.133 46.9501 38.0324C46.9913 37.9319 47.0122 37.8242 47.0114 37.7155C47.0107 37.6069 46.9884 37.4994 46.9458 37.3995C46.9032 37.2995 46.8411 37.209 46.7632 37.1332L44.6731 35.0429L46.7632 32.9526C46.8411 32.8769 46.9032 32.7864 46.9458 32.6864C46.9884 32.5864 47.0107 32.479 47.0114 32.3704C47.0122 32.2617 46.9913 32.154 46.9501 32.0534C46.9089 31.9529 46.8481 31.8616 46.7712 31.7847C46.6944 31.7079 46.6031 31.6471 46.5025 31.6058C46.402 31.5646 46.2943 31.5437 46.1856 31.5445C46.077 31.5452 45.9695 31.5675 45.8696 31.6101C45.7696 31.6527 45.6791 31.7147 45.6033 31.7926L42.9331 34.4628Z" fill="#FEBE41"/>
<path d="M37.5816 23.7708L35.4913 25.8611L33.401 23.7708C33.2468 23.619 33.0388 23.5344 32.8224 23.5353C32.606 23.5362 32.3987 23.6226 32.2457 23.7756C32.0927 23.9286 32.0064 24.1359 32.0055 24.3523C32.0046 24.5687 32.0893 24.7767 32.2411 24.931L34.9114 27.6012C35.0652 27.755 35.2738 27.8414 35.4913 27.8414C35.7089 27.8414 35.9175 27.755 36.0713 27.6012L38.7416 24.931C38.8933 24.7767 38.978 24.5687 38.9772 24.3523C38.9763 24.1359 38.89 23.9286 38.737 23.7756C38.584 23.6226 38.3767 23.5362 38.1603 23.5353C37.9439 23.5344 37.7359 23.619 37.5816 23.7708Z" fill="#FEBE41"/>
<path d="M33.4008 46.3151L35.4911 44.2248L37.5814 46.3151C37.7357 46.4669 37.9437 46.5515 38.1601 46.5506C38.3765 46.5497 38.5838 46.4633 38.7368 46.3103C38.8898 46.1573 38.9761 45.95 38.977 45.7336C38.9778 45.5172 38.8932 45.3092 38.7414 45.1549L36.0711 42.4847C35.9173 42.3309 35.7087 42.2445 35.4911 42.2445C35.2736 42.2445 35.065 42.3309 34.9112 42.4847L32.2409 45.1549C32.1637 45.2309 32.1023 45.3213 32.0603 45.4211C32.0182 45.5209 31.9963 45.628 31.9959 45.7363C31.9954 45.8446 32.0164 45.9519 32.0576 46.0521C32.0988 46.1522 32.1595 46.2432 32.236 46.3197C32.3126 46.3963 32.4036 46.457 32.5037 46.4982C32.6038 46.5395 32.7111 46.5605 32.8194 46.5601C32.9277 46.5596 33.0348 46.5378 33.1346 46.4957C33.2344 46.4537 33.3249 46.3923 33.4008 46.3151Z" fill="#FEBE41"/>
<path d="M41.1634 30.2578H44.9398C45.1574 30.2578 45.3661 30.1714 45.5199 30.0176C45.6737 29.8637 45.7602 29.6551 45.7602 29.4375C45.7602 29.22 45.6737 29.0113 45.5199 28.8575C45.3661 28.7036 45.1574 28.6172 44.9398 28.6172H41.917V25.5944C41.917 25.3768 41.8306 25.1681 41.6767 25.0143C41.5229 24.8605 41.3142 24.774 41.0967 24.774C40.8791 24.774 40.6705 24.8605 40.5166 25.0143C40.3628 25.1681 40.2764 25.3768 40.2764 25.5944V29.3707C40.2888 29.6019 40.3863 29.8204 40.55 29.9841C40.7137 30.1479 40.9322 30.2454 41.1634 30.2578Z" fill="#FEBE41"/>
<path d="M29.8189 39.8281H26.0425C25.8249 39.8281 25.6163 39.9145 25.4624 40.0684C25.3086 40.2222 25.2222 40.4309 25.2222 40.6484C25.2222 40.866 25.3086 41.0746 25.4624 41.2285C25.6163 41.3823 25.8249 41.4688 26.0425 41.4688H29.0653V44.4916C29.0653 44.7092 29.1518 44.9178 29.3056 45.0716C29.4594 45.2255 29.6681 45.3119 29.8856 45.3119C30.1032 45.3119 30.3119 45.2255 30.4657 45.0716C30.6195 44.9178 30.706 44.7092 30.706 44.4916V40.7153C30.6935 40.4841 30.5961 40.2656 30.4323 40.1018C30.2686 39.9381 30.0502 39.8406 29.8189 39.8281Z" fill="#FEBE41"/>
<path d="M41.0967 45.3119C41.3142 45.3119 41.5229 45.2255 41.6767 45.0716C41.8306 44.9178 41.917 44.7092 41.917 44.4916V41.4688H44.9398C45.1574 41.4688 45.3661 41.3823 45.5199 41.2285C45.6737 41.0746 45.7602 40.866 45.7602 40.6484C45.7602 40.4309 45.6737 40.2222 45.5199 40.0684C45.3661 39.9145 45.1574 39.8281 44.9398 39.8281H41.1634C40.9322 39.8406 40.7137 39.9381 40.55 40.1018C40.3863 40.2656 40.2888 40.4841 40.2764 40.7153V44.4916C40.2764 44.7092 40.3628 44.9178 40.5166 45.0716C40.6705 45.2255 40.8791 45.3119 41.0967 45.3119Z" fill="#FEBE41"/>
<path d="M29.8856 24.774C29.6681 24.774 29.4594 24.8605 29.3056 25.0143C29.1518 25.1681 29.0653 25.3768 29.0653 25.5944V28.6172H26.0425C25.8249 28.6172 25.6163 28.7036 25.4624 28.8575C25.3086 29.0113 25.2222 29.22 25.2222 29.4375C25.2222 29.6551 25.3086 29.8637 25.4624 30.0176C25.6163 30.1714 25.8249 30.2578 26.0425 30.2578H29.8189C30.0502 30.2454 30.2686 30.1479 30.4323 29.9841C30.5961 29.8204 30.6935 29.6019 30.706 29.3707V25.5944C30.706 25.3768 30.6195 25.1681 30.4657 25.0143C30.3119 24.8605 30.1032 24.774 29.8856 24.774Z" fill="#FEBE41"/>
</svg>
