<svg width="71" height="71" viewBox="0 0 71 71" fill="none" xmlns="http://www.w3.org/2000/svg">
<g clip-path="url(#clip0)">
<path d="M69.4283 55.1832C68.9458 55.1832 68.5544 55.5741 68.5544 56.0572V57.0767C68.5538 57.797 67.9718 58.3825 67.2515 58.3876H67.2168V55.5132C68.9231 55.1064 70.1275 53.5834 70.1298 51.8293V47.9456C70.1298 45.8536 68.4344 44.1587 66.3429 44.1587C64.2515 44.1587 62.556 45.8536 62.556 47.9456V51.8293C62.5588 53.5834 63.7633 55.1064 65.469 55.5132V62.7799C65.469 63.2623 65.8604 63.6538 66.3429 63.6538C66.8254 63.6538 67.2168 63.2623 67.2168 62.7799V60.1354H67.2544C68.9384 60.1263 70.2994 58.7602 70.3022 57.0767V56.0572C70.3022 55.5741 69.9113 55.1832 69.4283 55.1832ZM64.3038 51.8293V47.9456C64.3038 46.8191 65.217 45.9065 66.3429 45.9065C67.4694 45.9065 68.382 46.8191 68.382 47.9456V51.8293C68.3809 52.6161 67.9274 53.3319 67.2168 53.6687V52.9404C67.2168 52.458 66.8254 52.0665 66.3429 52.0665C65.8604 52.0665 65.469 52.458 65.469 52.9404V53.6687C64.7584 53.3319 64.3049 52.6161 64.3038 51.8293Z" fill="#FEBE41"/>
<path d="M61.626 57.628V26.2384C61.626 25.7554 61.2345 25.3645 60.7521 25.3645H42.1815C41.6985 25.3645 41.3076 25.7554 41.3076 26.2384V62.8208H43.0554V51.873H47.4978V62.8208H49.2456V51.873H53.688V57.5677C52.1979 57.8504 51.1408 59.1823 51.2034 60.6969C51.266 62.212 52.4306 63.4517 53.9383 63.6099C55.4466 63.7681 56.8422 62.7963 57.2178 61.3273C57.5933 59.8582 56.8349 58.3357 55.4358 57.7509V51.873H59.8782V57.6593C58.4285 58.1195 57.5364 59.5732 57.7827 61.0741C58.0291 62.5744 59.3394 63.6674 60.8602 63.6395C62.3804 63.6122 63.6503 62.4737 63.8426 60.9649C64.0349 59.4566 63.091 58.0353 61.626 57.628ZM54.2541 61.8831C53.5304 61.8831 52.9432 61.296 52.9432 60.5723C52.9432 59.848 53.5304 59.2614 54.2541 59.2614C54.9784 59.2614 55.565 59.848 55.565 60.5723C55.5644 61.296 54.9778 61.882 54.2541 61.8831ZM59.8782 43.935H55.4358V39.4927H59.8782V43.935ZM53.688 33.3025V37.7449H49.2456V33.3025H53.688ZM49.2456 31.5547V27.1123H53.688V31.5547H49.2456ZM47.4978 37.7449H43.0554V33.3025H47.4978V37.7449ZM47.4978 39.4927V43.935H43.0554V39.4927H47.4978ZM49.2456 39.4927H53.688V43.935H49.2456V39.4927ZM59.8782 37.7449H55.4358V33.3025H59.8782V37.7449ZM59.8782 31.5547H55.4358V27.1123H59.8782V31.5547ZM47.4978 27.1123V31.5547H43.0554V27.1123H47.4978ZM43.0554 50.1252V45.6829H47.4978V50.1252H43.0554ZM49.2456 50.1252V45.6829H53.688V50.1252H49.2456ZM55.4358 50.1252V45.6829H59.8782V50.1252H55.4358ZM60.8084 61.8831C60.0847 61.8831 59.4975 61.296 59.4975 60.5723C59.4975 59.848 60.0847 59.2614 60.8084 59.2614C61.5327 59.2614 62.1193 59.848 62.1193 60.5723C62.1187 61.296 61.5321 61.882 60.8084 61.8831Z" fill="#FEBE41"/>
<path d="M70.1175 61.9468H38.3217V13.8579C38.3217 13.3749 37.9303 12.984 37.4478 12.984H34.1951V12.2677H35.3843C35.8667 12.2677 36.2582 11.8763 36.2582 11.3938V7.26722C36.2582 6.78418 35.8667 6.39331 35.3843 6.39331H14.7507C14.2677 6.39331 13.8768 6.78418 13.8768 7.26722V11.3938C13.8768 11.8763 14.2677 12.2677 14.7507 12.2677H15.9398V12.984H12.6871C12.2041 12.984 11.8132 13.3749 11.8132 13.8579V57.6381C10.9404 57.8907 10.2264 58.5194 9.86456 59.3529C9.50328 60.1859 9.53172 61.1371 9.94307 61.9468H8.84557C9.49702 60.6604 9.16191 59.0929 8.03994 58.186C6.91853 57.2791 5.31523 57.2791 4.19383 58.186C3.07186 59.0929 2.73675 60.6604 3.38877 61.9468H1.86512C1.38265 61.9468 0.991211 62.3382 0.991211 62.8207C0.991211 63.3037 1.38265 63.6946 1.86512 63.6946H70.1175C70.6 63.6946 70.9914 63.3037 70.9914 62.8207C70.9914 62.3382 70.6 61.9468 70.1175 61.9468ZM6.11688 59.2613C6.84116 59.2613 7.42775 59.8479 7.42775 60.5722C7.42775 61.2959 6.84116 61.883 6.11688 61.883C5.39318 61.883 4.80602 61.2959 4.80602 60.5722C4.80716 59.8485 5.39318 59.2619 6.11688 59.2613ZM19.2255 59.2613C19.9498 59.2613 20.5364 59.8479 20.5364 60.5722C20.5364 61.2959 19.9498 61.883 19.2255 61.883C18.5018 61.883 17.9146 61.2959 17.9146 60.5722C17.9158 59.8485 18.5018 59.2619 19.2255 59.2613ZM19.7512 57.5619V51.8729H24.1936V61.9468H21.9542C22.3923 61.0837 22.3946 60.0635 21.9599 59.1982C21.5252 58.3328 20.7053 57.7251 19.7512 57.5619ZM24.1936 14.7318V19.1742H19.7512V14.7318H24.1936ZM36.5739 50.1251H32.1316V45.6827H36.5739V50.1251ZM25.9414 31.5546V27.1122H30.3838V31.5546H25.9414ZM30.3838 33.3024V37.7447H25.9414V33.3024H30.3838ZM24.1936 31.5546H19.7512V27.1122H24.1936V31.5546ZM24.1936 33.3024V37.7447H19.7512V33.3024H24.1936ZM24.1936 39.4926V43.9349H19.7512V39.4926H24.1936ZM25.9414 39.4926H30.3838V43.9349H25.9414V39.4926ZM30.3838 45.6827V50.1251H25.9414V45.6827H30.3838ZM36.5739 43.9349H32.1316V39.4926H36.5739V43.9349ZM36.5739 37.7447H32.1316V33.3024H36.5739V37.7447ZM36.5739 31.5546H32.1316V27.1122H36.5739V31.5546ZM36.5739 25.3644H32.1316V20.922H36.5739V25.3644ZM30.3838 25.3644H25.9414V20.922H30.3838V25.3644ZM25.9414 19.1742V14.7318H30.3838V19.1742H25.9414ZM24.1936 20.922V25.3644H19.7512V20.922H24.1936ZM18.0034 25.3644H13.561V20.922H18.0034V25.3644ZM18.0034 27.1122V31.5546H13.561V27.1122H18.0034ZM18.0034 33.3024V37.7447H13.561V33.3024H18.0034ZM18.0034 39.4926V43.9349H13.561V39.4926H18.0034ZM18.0034 45.6827V50.1251H13.561V45.6827H18.0034ZM19.7512 45.6827H24.1936V50.1251H19.7512V45.6827ZM25.9414 51.8729H30.3838V61.9468H25.9414V51.8729ZM32.1316 51.8729H36.5739V61.9468H32.1316V51.8729ZM36.5739 19.1742H32.1316V14.7318H36.5739V19.1742ZM15.6246 8.14113H34.5103V10.5199H15.6246V8.14113ZM17.6876 12.2677H32.4473V12.984H17.6876V12.2677ZM18.0034 14.7318V19.1742H13.561V14.7318H18.0034ZM12.6712 59.2613C13.3955 59.2613 13.9821 59.8479 13.9821 60.5722C13.9821 61.2959 13.3955 61.883 12.6712 61.883C11.9475 61.883 11.3603 61.2959 11.3603 60.5722C11.3615 59.8485 11.9475 59.2619 12.6712 59.2613ZM13.561 57.6461V51.8729H18.0034V57.7701C17.2319 58.1041 16.6328 58.7419 16.3477 59.5327C16.0627 60.3235 16.1168 61.1974 16.4974 61.9468H15.3999C15.8084 61.1417 15.8391 60.1972 15.4846 59.3671C15.1296 58.537 14.4253 57.9072 13.561 57.6461Z" fill="#33484B"/>
</g>
<defs>
<clipPath id="clip0">
<rect width="70" height="70" fill="white" transform="translate(0.991211 0.0429688)"/>
</clipPath>
</defs>
</svg>
