<svg width="71" height="71" viewBox="0 0 71 71" fill="none" xmlns="http://www.w3.org/2000/svg">
<path d="M55.6572 17.7463L29.4072 2.59074C29.2617 2.50675 29.0967 2.46252 28.9287 2.46252C28.7607 2.46252 28.5957 2.50675 28.4502 2.59074L2.2002 17.7463C2.05471 17.8303 1.9339 17.9511 1.8499 18.0966C1.76591 18.2421 1.72168 18.4071 1.72168 18.5751V51.5106C1.72168 51.6786 1.76591 51.8436 1.8499 51.9891C1.9339 52.1346 2.05471 52.2554 2.2002 52.3394L28.4502 67.495C28.5957 67.579 28.7607 67.6232 28.9287 67.6232C29.0967 67.6232 29.2617 67.579 29.4072 67.495L44.4075 58.8348L43.4504 57.1772L29.8857 65.0087V34.2809L54.2217 20.2306V38.3242H56.1357V18.5751C56.1357 18.4071 56.0915 18.2421 56.0075 18.0966C55.9235 17.9511 55.8027 17.8303 55.6572 17.7463ZM21.7024 28.4514L46.0366 14.4019L53.2629 18.574L28.9287 32.6231L21.7024 28.4514ZM14.0264 26.2457L18.8115 28.9765V46.5183L17.0068 44.484C16.8708 44.3338 16.6919 44.2291 16.4944 44.184C16.2969 44.1389 16.0903 44.1556 15.9026 44.2319L14.0264 44.9982V26.2457ZM15.0107 24.588L39.3452 10.5386L44.1225 13.2968L19.7884 27.3457L15.0107 24.588ZM28.9287 4.52463L37.4311 9.43365L13.0967 23.483L4.59414 18.574L28.9287 4.52463ZM3.63574 20.2306L12.1123 25.1406V46.4289C12.1155 46.5872 12.1571 46.7423 12.2336 46.8809C12.31 47.0195 12.4191 47.1374 12.5512 47.2244C12.6834 47.3115 12.8348 47.3651 12.9923 47.3806C13.1499 47.3961 13.3088 47.3731 13.4554 47.3135L16.005 46.262L19.0211 49.6863C19.1111 49.7883 19.2218 49.8701 19.3459 49.9261C19.4699 49.9821 19.6044 50.011 19.7405 50.011C19.8605 50.011 19.9795 49.9901 20.0923 49.9493C20.2758 49.8813 20.4345 49.7594 20.5475 49.5996C20.6605 49.4398 20.7226 49.2496 20.7256 49.0539V30.0816L27.9717 34.2809V65.0087L3.63574 50.9584V20.2306Z" fill="#33484B"/>
<path d="M6.09668 46.3149C5.84286 46.3149 5.59943 46.4158 5.41996 46.5952C5.24048 46.7747 5.13965 47.0181 5.13965 47.272V50.8158C5.13965 51.0697 5.24048 51.3131 5.41996 51.4926C5.59943 51.672 5.84286 51.7729 6.09668 51.7729C6.3505 51.7729 6.59392 51.672 6.7734 51.4926C6.95288 51.3131 7.05371 51.0697 7.05371 50.8158V47.272C7.05371 47.0181 6.95288 46.7747 6.7734 46.5952C6.59392 46.4158 6.3505 46.3149 6.09668 46.3149Z" fill="#33484B"/>
<path d="M9.9248 48.9399C9.67098 48.9399 9.42756 49.0408 9.24808 49.2203C9.0686 49.3997 8.96777 49.6432 8.96777 49.897V53.0899C8.96777 53.3437 9.0686 53.5872 9.24808 53.7666C9.42756 53.9461 9.67098 54.0469 9.9248 54.0469C10.1786 54.0469 10.422 53.9461 10.6015 53.7666C10.781 53.5872 10.8818 53.3437 10.8818 53.0899V49.897C10.8818 49.6432 10.781 49.3997 10.6015 49.2203C10.422 49.0408 10.1786 48.9399 9.9248 48.9399Z" fill="#33484B"/>
<path d="M13.8896 51.5651C13.6358 51.5651 13.3924 51.6659 13.2129 51.8454C13.0334 52.0249 12.9326 52.2683 12.9326 52.5221V55.333C12.9326 55.5869 13.0334 55.8303 13.2129 56.0098C13.3924 56.1892 13.6358 56.2901 13.8896 56.2901C14.1435 56.2901 14.3869 56.1892 14.5664 56.0098C14.7458 55.8303 14.8467 55.5869 14.8467 55.333V52.5221C14.8467 52.2683 14.7458 52.0249 14.5664 51.8454C14.3869 51.6659 14.1435 51.5651 13.8896 51.5651Z" fill="#33484B"/>
<path d="M17.7178 54.1898C17.464 54.1898 17.2205 54.2907 17.0411 54.4701C16.8616 54.6496 16.7607 54.893 16.7607 55.1469V57.5766C16.7607 57.8305 16.8616 58.0739 17.0411 58.2534C17.2205 58.4328 17.464 58.5337 17.7178 58.5337C17.9716 58.5337 18.215 58.4328 18.3945 58.2534C18.574 58.0739 18.6748 57.8305 18.6748 57.5766V55.1469C18.6748 54.893 18.574 54.6496 18.3945 54.4701C18.215 54.2907 17.9716 54.1898 17.7178 54.1898Z" fill="#33484B"/>
<path d="M21.6826 56.8151C21.4288 56.8151 21.1854 56.9159 21.0059 57.0954C20.8264 57.2748 20.7256 57.5183 20.7256 57.7721V59.872C20.7256 60.1258 20.8264 60.3692 21.0059 60.5487C21.1854 60.7282 21.4288 60.829 21.6826 60.829C21.9364 60.829 22.1799 60.7282 22.3593 60.5487C22.5388 60.3692 22.6396 60.1258 22.6396 59.872V57.7721C22.6396 57.5183 22.5388 57.2748 22.3593 57.0954C22.1799 56.9159 21.9364 56.8151 21.6826 56.8151Z" fill="#33484B"/>
<path d="M55.1787 37.3978C52.3935 37.3978 49.6709 38.2237 47.3552 39.7711C45.0394 41.3184 43.2344 43.5177 42.1686 46.0909C41.1028 48.6641 40.8239 51.4955 41.3673 54.2271C41.9106 56.9588 43.2518 59.4679 45.2212 61.4374C47.1906 63.4068 49.6998 64.7479 52.4314 65.2913C55.1631 65.8347 57.9945 65.5558 60.5677 64.49C63.1408 63.4241 65.3401 61.6192 66.8875 59.3034C68.4348 56.9876 69.2607 54.265 69.2607 51.4799C69.2565 47.7464 67.7715 44.167 65.1315 41.527C62.4915 38.8871 58.9122 37.4021 55.1787 37.3978ZM55.1787 63.6478C52.7721 63.6478 50.4196 62.9342 48.4186 61.5972C46.4175 60.2601 44.8579 58.3597 43.937 56.1363C43.016 53.9129 42.775 51.4664 43.2446 49.106C43.7141 46.7457 44.8729 44.5775 46.5747 42.8758C48.2764 41.1741 50.4445 40.0152 52.8049 39.5457C55.1652 39.0762 57.6118 39.3172 59.8352 40.2381C62.0586 41.1591 63.959 42.7187 65.296 44.7197C66.633 46.7207 67.3467 49.0733 67.3467 51.4799C67.343 54.7059 66.0599 57.7988 63.7788 60.0799C61.4976 62.3611 58.4047 63.6442 55.1787 63.6478Z" fill="#FEBE41"/>
<path d="M33.9668 40.2219C34.1421 40.2223 34.3143 40.1757 34.4656 40.0871C34.6169 39.9985 34.7417 39.871 34.827 39.7178L35.3544 38.7674V46.9946C35.3544 47.2484 35.4552 47.4918 35.6347 47.6713C35.8142 47.8508 36.0576 47.9516 36.3114 47.9516C36.5652 47.9516 36.8086 47.8508 36.9881 47.6713C37.1676 47.4918 37.2684 47.2484 37.2684 46.9946V37.3737L38.0465 38.2154C38.132 38.3068 38.2347 38.3803 38.3487 38.4317C38.4627 38.4831 38.5857 38.5115 38.7108 38.5151C38.8358 38.5187 38.9603 38.4975 39.0771 38.4528C39.1939 38.4081 39.3007 38.3406 39.3913 38.2544C39.4825 38.1678 39.5557 38.0642 39.6068 37.9493C39.6579 37.8344 39.6859 37.7105 39.6891 37.5848C39.6923 37.4591 39.6708 37.334 39.6256 37.2167C39.5805 37.0993 39.5126 36.992 39.426 36.9009L36.9765 34.3088C36.8723 34.1986 36.7435 34.1147 36.6005 34.064C36.4576 34.0132 36.3046 33.9972 36.1542 34.0171C36.0039 34.037 35.8604 34.0923 35.7355 34.1784C35.6107 34.2646 35.5081 34.3792 35.4361 34.5127L33.1248 38.8115C33.0464 38.9573 33.0071 39.1209 33.0108 39.2863C33.0145 39.4517 33.061 39.6134 33.1459 39.7555C33.2307 39.8976 33.3509 40.0152 33.4948 40.097C33.6387 40.1787 33.8013 40.2218 33.9668 40.2219Z" fill="#FEBE41"/>
<path d="M38.2476 48.3686L33.888 50.8855C33.7783 50.9478 33.682 51.0313 33.6047 51.1311C33.5273 51.2308 33.4705 51.3449 33.4374 51.4667C33.4044 51.5885 33.3957 51.7156 33.412 51.8408C33.4282 51.9659 33.4691 52.0866 33.5322 52.1959C33.5953 52.3052 33.6794 52.401 33.7797 52.4777C33.8799 52.5543 33.9944 52.6104 34.1164 52.6427C34.2384 52.6749 34.3656 52.6827 34.4907 52.6656C34.6157 52.6485 34.7362 52.6069 34.845 52.543L39.2046 50.0262C39.3143 49.9638 39.4106 49.8803 39.4879 49.7806C39.5653 49.6808 39.6221 49.5668 39.6552 49.445C39.6882 49.3232 39.6969 49.196 39.6806 49.0709C39.6643 48.9457 39.6235 48.825 39.5604 48.7157C39.4973 48.6064 39.4132 48.5106 39.3129 48.434C39.2126 48.3573 39.0982 48.3012 38.9762 48.269C38.8542 48.2367 38.727 48.2289 38.6019 48.246C38.4769 48.2631 38.3564 48.3048 38.2476 48.3686Z" fill="#FEBE41"/>
<path d="M61.3311 50.4922H56.1357V45.3275C56.1357 45.0737 56.0349 44.8303 55.8554 44.6508C55.676 44.4713 55.4325 44.3705 55.1787 44.3705C54.9249 44.3705 54.6815 44.4713 54.502 44.6508C54.3225 44.8303 54.2217 45.0737 54.2217 45.3275V50.4922H49.0264C48.7725 50.4922 48.5291 50.593 48.3496 50.7725C48.1702 50.952 48.0693 51.1954 48.0693 51.4492C48.0693 51.7031 48.1702 51.9465 48.3496 52.126C48.5291 52.3054 48.7725 52.4063 49.0264 52.4063H54.2217V57.6322C54.2217 57.886 54.3225 58.1294 54.502 58.3089C54.6815 58.4884 54.9249 58.5892 55.1787 58.5892C55.4325 58.5892 55.676 58.4884 55.8554 58.3089C56.0349 58.1294 56.1357 57.886 56.1357 57.6322V52.4063H61.3311C61.5849 52.4063 61.8283 52.3054 62.0078 52.126C62.1873 51.9465 62.2881 51.7031 62.2881 51.4492C62.2881 51.1954 62.1873 50.952 62.0078 50.7725C61.8283 50.593 61.5849 50.4922 61.3311 50.4922Z" fill="#FEBE41"/>
</svg>
