<svg width="71" height="71" viewBox="0 0 71 71" fill="none" xmlns="http://www.w3.org/2000/svg">
<g clip-path="url(#clip0)">
<path d="M13.418 59.0816H49.9355C51.8367 59.0795 53.6595 58.3283 55.0039 56.9928C56.3482 55.6574 57.1044 53.8468 57.1066 51.9582C57.1065 51.9105 57.1024 51.8629 57.0941 51.816L55.8636 44.9176C55.8257 44.7048 55.7042 44.5157 55.5258 44.3919C55.3475 44.2681 55.1269 44.2197 54.9127 44.2574C54.6985 44.2951 54.5081 44.4158 54.3834 44.593C54.2588 44.7701 54.2101 44.9892 54.248 45.202L55.4648 52.0274C55.4448 53.4718 54.8535 54.8503 53.8189 55.8653C52.7842 56.8802 51.3891 57.4501 49.935 57.4519H13.418C11.9637 57.4502 10.5686 56.8804 9.5338 55.8654C8.49903 54.8504 7.90775 53.4719 7.88768 52.0274L13.8045 18.8471C13.8054 18.8418 13.8061 18.8365 13.8071 18.8313C13.8919 18.2795 14.1735 17.7763 14.6006 17.4134C15.0277 17.0506 15.5718 16.8523 16.1337 16.8546H20.3612V22.9203C20.3612 23.1364 20.4476 23.3437 20.6015 23.4965C20.7553 23.6493 20.964 23.7351 21.1815 23.7351C21.3991 23.7351 21.6077 23.6493 21.7616 23.4965C21.9154 23.3437 22.0018 23.1364 22.0018 22.9203V16.8546H41.3511V22.9203C41.3511 23.1364 41.4375 23.3437 41.5914 23.4965C41.7452 23.6493 41.9538 23.7351 42.1714 23.7351C42.389 23.7351 42.5976 23.6493 42.7514 23.4965C42.9053 23.3437 42.9917 23.1364 42.9917 22.9203V16.8546H47.2191C47.781 16.8523 48.3251 17.0506 48.7522 17.4134C49.1793 17.7763 49.4609 18.2795 49.5457 18.8313C49.5467 18.8365 49.5474 18.8418 49.5483 18.8471L50.9329 26.6117C50.9709 26.8246 51.0924 27.0137 51.2707 27.1375C51.449 27.2613 51.6696 27.3097 51.8838 27.272C52.0981 27.2343 52.2885 27.1136 52.4131 26.9364C52.5378 26.7593 52.5865 26.5402 52.5485 26.3274L51.1652 18.5703C51.0195 17.6357 50.5411 16.7841 49.817 16.1702C49.0929 15.5563 48.1711 15.2209 47.2191 15.2249H42.9917V11.2441C42.9813 8.26981 41.7846 5.42085 39.6637 3.32135C37.5428 1.22185 34.6706 0.0429688 31.6764 0.0429688C28.6822 0.0429688 25.81 1.22185 23.6891 3.32135C21.5682 5.42085 20.3715 8.26981 20.3611 11.2441V15.2249H16.1337C15.1817 15.2209 14.2599 15.5563 13.5358 16.1702C12.8116 16.7841 12.3333 17.6357 12.1876 18.5703L6.25922 51.8157C6.25094 51.8627 6.24673 51.9102 6.24664 51.9579C6.24878 53.8466 7.00501 55.6573 8.34943 56.9928C9.69385 58.3283 11.5167 59.0795 13.418 59.0816ZM22.0018 11.2441C22.0115 8.70153 23.035 6.26635 24.8483 4.47184C26.6616 2.67733 29.1169 1.66975 31.6765 1.66975C34.2361 1.66975 36.6914 2.67733 38.5048 4.47184C40.3181 6.26635 41.3416 8.70153 41.3512 11.2441V15.2249H22.0018V11.2441Z" fill="#33484B"/>
<path d="M38.4753 29.0814V42.1361C38.4764 43.104 38.8613 44.0318 39.5456 44.7162C40.23 45.4005 41.1578 45.7855 42.1257 45.7865H43.2772C43.3127 45.7846 43.3478 45.7945 43.377 45.8146C43.4062 45.8348 43.428 45.864 43.4388 45.8978C44.0869 49.5659 46.4927 50.7148 47.0645 50.9386C47.1831 51.0005 47.3149 51.0328 47.4487 51.033C47.489 51.033 47.5293 51.0299 47.5693 51.024C47.7387 50.997 47.8963 50.9202 48.022 50.8033C48.1476 50.6865 48.2356 50.5348 48.2747 50.3677C48.3412 50.0768 48.3833 49.7808 48.4006 49.4829C48.5826 47.5352 48.9371 45.7868 51.2466 45.7868H63.9661C64.9339 45.7857 65.8617 45.4007 66.546 44.7164C67.2304 44.0321 67.6153 43.1042 67.6165 42.1364V29.0814C67.6153 28.1136 67.2304 27.1858 66.546 26.5014C65.8617 25.8171 64.9339 25.4322 63.9661 25.431H42.1255C41.1577 25.4322 40.2299 25.8171 39.5456 26.5015C38.8613 27.1858 38.4764 28.1136 38.4753 29.0814ZM65.9757 29.0814V42.1361C65.9751 42.669 65.7632 43.1798 65.3864 43.5566C65.0096 43.9334 64.4988 44.1453 63.9659 44.1459H51.2459C49.5411 44.1459 48.2552 44.8651 47.5271 46.2255C47.0515 47.1142 46.8929 48.1153 46.8094 48.8944C46.1713 48.3727 45.3673 47.3861 45.0538 45.6122C44.9774 45.1978 44.7573 44.8235 44.4322 44.5553C44.1071 44.2871 43.6978 44.1422 43.2764 44.1459H42.1248C41.592 44.1453 41.0811 43.9334 40.7044 43.5566C40.3276 43.1798 40.1157 42.669 40.1151 42.1361V29.0814C40.1157 28.5486 40.3276 28.0377 40.7044 27.6609C41.0811 27.2842 41.592 27.0722 42.1248 27.0717H63.9659C64.4988 27.0722 65.0096 27.2842 65.3864 27.6609C65.7632 28.0377 65.9751 28.5486 65.9757 29.0814Z" fill="#FEBE41"/>
<path d="M47.4991 40.7936C47.6529 40.9474 47.8615 41.0338 48.0791 41.0338C48.2966 41.0338 48.5052 40.9474 48.659 40.7936L58.3417 31.1107C58.4921 30.9561 58.5755 30.7486 58.5741 30.533C58.5726 30.3173 58.4863 30.111 58.3338 29.9585C58.1813 29.806 57.9749 29.7197 57.7593 29.7183C57.5437 29.7168 57.3361 29.8003 57.1816 29.9507L47.4987 39.6337C47.345 39.7876 47.2586 39.9962 47.2587 40.2137C47.2588 40.4313 47.3453 40.6398 47.4991 40.7936Z" fill="#FEBE41"/>
<path d="M54.8829 36.1744L53.7227 37.3346C53.262 37.7965 53.0032 38.4223 53.0032 39.0747C53.0032 39.7271 53.262 40.3529 53.7227 40.8148C54.1846 41.2756 54.8104 41.5343 55.4629 41.5343C56.1153 41.5343 56.7411 41.2756 57.203 40.8148L58.3631 39.6546C58.8184 39.1918 59.0724 38.5679 59.0697 37.9187C59.0671 37.2695 58.808 36.6476 58.349 36.1886C57.8899 35.7295 57.268 35.4704 56.6188 35.4678C55.9696 35.4652 55.3457 35.7191 54.8829 36.1744ZM57.2032 38.4947L56.043 39.6547C55.8891 39.8086 55.6804 39.895 55.4629 39.895C55.2453 39.895 55.0366 39.8086 54.8828 39.6547C54.7289 39.5009 54.6425 39.2922 54.6425 39.0747C54.6425 38.8571 54.7289 38.6484 54.8828 38.4946L56.0428 37.3345C56.119 37.2583 56.2094 37.1979 56.309 37.1566C56.4085 37.1154 56.5152 37.0942 56.6229 37.0942C56.7307 37.0942 56.8374 37.1154 56.9369 37.1566C57.0365 37.1978 57.1269 37.2583 57.2031 37.3344C57.2793 37.4106 57.3397 37.5011 57.381 37.6006C57.4222 37.7001 57.4434 37.8068 57.4434 37.9145C57.4434 38.0223 57.4222 38.129 57.381 38.2285C57.3398 38.3281 57.2793 38.4185 57.2032 38.4947Z" fill="#FEBE41"/>
<path d="M49.4687 35.5404C49.7919 35.5411 50.112 35.4778 50.4106 35.3543C50.7092 35.2308 50.9805 35.0495 51.2089 34.8209L52.3689 33.6608C52.5994 33.4327 52.7825 33.1614 52.9078 32.8623C53.0331 32.5632 53.098 32.2423 53.0988 31.9181C53.0997 31.5938 53.0364 31.2726 52.9127 30.9729C52.7891 30.6731 52.6073 30.4008 52.3781 30.1715C52.1488 29.9422 51.8765 29.7605 51.5767 29.6368C51.277 29.5131 50.9558 29.4499 50.6315 29.4507C50.3073 29.4515 49.9864 29.5164 49.6873 29.6417C49.3882 29.7669 49.1168 29.95 48.8888 30.1805L47.7287 31.3407C47.3844 31.6847 47.1499 32.1231 47.0549 32.6005C46.9598 33.0778 47.0085 33.5726 47.1948 34.0222C47.3811 34.4719 47.6966 34.8561 48.1014 35.1264C48.5062 35.3966 48.982 35.5407 49.4687 35.5404ZM48.8886 32.5006L50.0487 31.3407C50.2025 31.1868 50.4112 31.1004 50.6287 31.1004C50.8463 31.1003 51.055 31.1867 51.2089 31.3406C51.3627 31.4944 51.4492 31.7031 51.4492 31.9206C51.4493 32.1382 51.3628 32.3469 51.209 32.5008L50.0488 33.6608C49.895 33.8147 49.6863 33.9011 49.4687 33.9011C49.2511 33.9011 49.0425 33.8147 48.8886 33.6608C48.7348 33.507 48.6483 33.2983 48.6483 33.0807C48.6483 32.8631 48.7348 32.6545 48.8886 32.5006Z" fill="#FEBE41"/>
</g>
<defs>
<clipPath id="clip0">
<rect width="70" height="70" fill="white" transform="translate(0.303711 0.0429688)"/>
</clipPath>
</defs>
</svg>
