<svg width="71" height="71" viewBox="0 0 71 71" fill="none" xmlns="http://www.w3.org/2000/svg">
<path d="M22.0869 21.7974C22.2492 21.9874 22.4794 22.1064 22.7282 22.129C22.9771 22.1515 23.225 22.0759 23.4188 21.9181L29.3125 17.1232C29.4105 17.0441 29.492 16.9464 29.5522 16.8357C29.6124 16.725 29.6502 16.6035 29.6633 16.4782C29.6765 16.3529 29.6647 16.2262 29.6288 16.1055C29.5928 15.9847 29.5334 15.8722 29.4539 15.7745C29.3744 15.6767 29.2763 15.5956 29.1654 15.5359C29.0545 15.4761 28.9328 15.4388 28.8075 15.4262C28.6821 15.4136 28.5555 15.4258 28.4348 15.4622C28.3142 15.4987 28.202 15.5586 28.1046 15.6385L22.9358 19.8437L21.4952 18.157C21.414 18.0601 21.3144 17.9802 21.2021 17.9221C21.0899 17.8639 20.9672 17.8285 20.8413 17.818C20.7153 17.8075 20.5885 17.8221 20.4681 17.8609C20.3478 17.8996 20.2364 17.9619 20.1402 18.044C20.0441 18.1261 19.9652 18.2264 19.908 18.3392C19.8509 18.4519 19.8167 18.5749 19.8073 18.701C19.798 18.827 19.8137 18.9537 19.8536 19.0737C19.8934 19.1936 19.9567 19.3045 20.0397 19.3999L22.0869 21.7974Z" fill="#FEBE41"/>
<path d="M24.8796 28.5899C30.5582 28.5899 35.1782 23.9437 35.1782 18.2326C35.1782 12.5216 30.5582 7.87524 24.8796 7.87524C19.2009 7.87524 14.5808 12.5216 14.5808 18.2326C14.5808 23.9437 19.2008 28.5899 24.8796 28.5899ZM24.8796 9.78931C29.5028 9.78931 33.2641 13.5764 33.2641 18.2326C33.2641 22.8889 29.5028 26.6758 24.8796 26.6758C20.2563 26.6758 16.4949 22.8887 16.4949 18.2326C16.4949 13.5766 20.2561 9.78862 24.8796 9.78862V9.78931Z" fill="#FEBE41"/>
<path d="M9.47363 60.1992H13.6466C13.9004 60.1992 14.1438 60.0984 14.3233 59.9189C14.5028 59.7394 14.6036 59.496 14.6036 59.2422C14.6036 58.9884 14.5028 58.7449 14.3233 58.5655C14.1438 58.386 13.9004 58.2852 13.6466 58.2852H9.47363C8.16113 58.2852 7.05371 57.2535 7.05371 55.9403V28.0658C7.05371 26.7526 8.16031 25.7461 9.47363 25.7461H11.333C11.5868 25.7461 11.8303 25.6453 12.0097 25.4658C12.1892 25.2863 12.29 25.0429 12.29 24.7891C12.29 24.5352 12.1892 24.2918 12.0097 24.1123C11.8303 23.9329 11.5868 23.832 11.333 23.832H9.47363C7.10498 23.832 5.13965 25.6971 5.13965 28.0658V55.9403C5.13965 58.3088 7.10498 60.1992 9.47363 60.1992Z" fill="#33484B"/>
<path d="M44.1045 32.7188V28.0658C44.1045 25.6971 42.1415 23.832 39.7728 23.832H38.0889V25.7461H39.7728C41.086 25.7461 42.1904 26.7526 42.1904 28.0658V58.2852H25.374V60.1992H47.1952C47.449 60.1992 47.6924 60.0984 47.8719 59.9189C48.0514 59.7394 48.1522 59.496 48.1522 59.2422C48.1522 58.9884 48.0514 58.7449 47.8719 58.5655C47.6924 58.386 47.449 58.2852 47.1952 58.2852H44.1045V45.0234H63.9287V55.9403C63.9287 57.2535 62.8221 58.2852 61.5088 58.2852H58.8797C58.6259 58.2852 58.3824 58.386 58.203 58.5655C58.0235 58.7449 57.9227 58.9884 57.9227 59.2422C57.9227 59.496 58.0235 59.7394 58.203 59.9189C58.3824 60.0984 58.6259 60.1992 58.8797 60.1992H61.5088C63.8773 60.1992 65.8428 58.3088 65.8428 55.9403V44.0778C65.8428 44.07 65.8227 44.0623 65.8224 44.0545C65.8224 44.0369 65.8116 44.0194 65.8102 44.0019C65.8091 43.9874 65.8029 43.973 65.8011 43.9587C65.799 43.9421 65.794 43.9259 65.7911 43.9095C65.7882 43.893 65.7844 43.8798 65.7811 43.865C65.7778 43.8503 65.7729 43.8343 65.7687 43.8188C65.7644 43.8034 65.7599 43.7894 65.755 43.7748C65.7501 43.7602 65.7443 43.7451 65.7386 43.7304C65.7329 43.7156 65.7272 43.7019 65.721 43.688C65.7147 43.674 65.7073 43.6594 65.7003 43.6452C65.6933 43.631 65.6866 43.6178 65.6786 43.6042C65.6705 43.5905 65.6627 43.5775 65.6544 43.5644C65.646 43.5513 65.6367 43.537 65.627 43.524C65.6173 43.5111 65.6097 43.5003 65.6005 43.4885C65.5913 43.4767 65.5788 43.4612 65.5674 43.4486C65.5621 43.4426 65.5577 43.4363 65.5522 43.4304L56.953 34.0859C56.549 33.6512 56.0591 33.3053 55.5143 33.0699C54.9695 32.8345 54.3817 32.715 53.7883 32.7188H44.1045ZM62.6699 43.1094H44.1045V34.6328H53.7883C54.1162 34.6276 54.4416 34.6908 54.7437 34.8185C55.0458 34.9461 55.3179 35.1353 55.5428 35.374L62.6699 43.1094Z" fill="#33484B"/>
<path d="M19.4888 52.4792C18.144 52.4792 16.8294 52.878 15.7113 53.6252C14.5931 54.3723 13.7216 55.4342 13.207 56.6766C12.6923 57.9191 12.5577 59.2862 12.82 60.6052C13.0824 61.9241 13.73 63.1357 14.6809 64.0866C15.6318 65.0375 16.8434 65.6851 18.1623 65.9474C19.4813 66.2098 20.8484 66.0752 22.0909 65.5605C23.3333 65.0459 24.3952 64.1744 25.1424 63.0562C25.8895 61.9381 26.2883 60.6235 26.2883 59.2787C26.2862 57.476 25.5692 55.7477 24.2945 54.473C23.0198 53.1983 21.2915 52.4813 19.4888 52.4792ZM19.4888 64.1639C18.5226 64.1639 17.578 63.8774 16.7746 63.3406C15.9713 62.8037 15.3451 62.0407 14.9753 61.1481C14.6056 60.2554 14.5088 59.2731 14.6973 58.3254C14.8859 57.3777 15.3512 56.5072 16.0344 55.824C16.7176 55.1408 17.5881 54.6755 18.5358 54.487C19.4835 54.2985 20.4658 54.3953 21.3585 54.7651C22.2512 55.1349 23.0141 55.7611 23.5509 56.5645C24.0877 57.3679 24.3742 58.3124 24.3742 59.2787C24.3728 60.5739 23.8576 61.8157 22.9417 62.7315C22.0258 63.6474 20.7841 64.1625 19.4888 64.1639Z" fill="#FEBE41"/>
<path d="M53.0376 66.0781C54.3824 66.0781 55.697 65.6793 56.8152 64.9322C57.9333 64.1851 58.8048 63.1231 59.3195 61.8807C59.8341 60.6382 59.9687 59.2711 59.7064 57.9521C59.444 56.6332 58.7964 55.4216 57.8455 54.4707C56.8945 53.5198 55.683 52.8722 54.364 52.6099C53.045 52.3475 51.6779 52.4822 50.4355 52.9969C49.193 53.5115 48.1311 54.383 47.384 55.5012C46.6369 56.6194 46.2381 57.934 46.2382 59.2788C46.2402 61.0815 46.9573 62.8097 48.232 64.0844C49.5067 65.3591 51.2349 66.0761 53.0376 66.0781ZM53.0376 54.3935C54.0038 54.3935 54.9484 54.68 55.7518 55.2168C56.5552 55.7536 57.1813 56.5166 57.5511 57.4093C57.9208 58.302 58.0176 59.2842 57.8291 60.2319C57.6406 61.1796 57.1753 62.0501 56.4921 62.7333C55.8088 63.4165 54.9383 63.8818 53.9907 64.0703C53.043 64.2588 52.0607 64.1621 51.168 63.7923C50.2754 63.4226 49.5124 62.7964 48.9756 61.993C48.4387 61.1896 48.1522 60.2451 48.1522 59.2788C48.1536 57.9836 48.6688 56.7418 49.5847 55.8259C50.5005 54.91 51.7423 54.3949 53.0376 54.3935Z" fill="#FEBE41"/>
<path d="M24.1887 40.4215C24.278 40.5147 24.3853 40.5889 24.504 40.6396C24.6228 40.6903 24.7506 40.7164 24.8797 40.7164C25.0089 40.7164 25.1366 40.6903 25.2554 40.6396C25.3742 40.5889 25.4814 40.5147 25.5708 40.4215L35.7213 29.8258C37.3073 28.1703 38.4766 26.3507 39.1963 24.4177C39.931 22.4781 40.2413 20.4035 40.1063 18.3338C39.8461 14.5468 38.206 10.9868 35.4968 8.32813C32.657 5.55805 28.8469 4.00757 24.8798 4.00757C20.9127 4.00757 17.1026 5.55805 14.2628 8.32813C11.5534 10.987 9.91331 14.5474 9.65329 18.3346C9.51823 20.4043 9.82854 22.4789 10.5633 24.4186C11.283 26.3516 12.4522 28.1711 14.0381 29.8267L24.1887 40.4215ZM11.5628 18.4651C11.7912 15.145 13.2293 12.0239 15.6048 9.69313C18.0866 7.2751 21.4147 5.92191 24.8797 5.92191C28.3448 5.92191 31.6728 7.2751 34.1547 9.69313C36.5302 12.0239 37.9683 15.145 38.1966 18.4651C38.3127 20.2634 38.042 22.0657 37.4025 23.7504C36.7745 25.4374 35.7437 27.0362 34.3392 28.5022L24.8798 38.376L15.421 28.5022C14.0158 27.0363 12.9853 25.4375 12.357 23.75C11.7177 22.0654 11.4469 20.2633 11.5628 18.4651Z" fill="#FEBE41"/>
</svg>
