<svg width="80" height="80" viewBox="0 0 80 80" fill="none" xmlns="http://www.w3.org/2000/svg">
<path d="M31.564 56.0628C31.2618 56.0628 30.9574 55.9589 30.709 55.7473L22.1624 48.4699C21.8676 48.2186 21.6981 47.8516 21.6981 47.4639C21.6981 47.0769 21.8684 46.7099 22.1624 46.4586L30.709 39.1811C31.264 38.708 32.0976 38.775 32.5708 39.33C33.0432 39.8857 32.9769 40.7193 32.4211 41.1918L25.056 47.4639L32.4211 53.736C32.9769 54.2092 33.0432 55.0427 32.5708 55.5977C32.3091 55.9051 31.9377 56.0628 31.564 56.0628Z" fill="#FEBE41"/>
<path d="M48.436 56.0628C48.0624 56.0628 47.6909 55.9051 47.43 55.5977C46.9568 55.0427 47.0239 54.2092 47.5789 53.736L54.944 47.4639L47.5789 41.1918C47.0239 40.7193 46.9568 39.8857 47.43 39.33C47.9024 38.775 48.7367 38.708 49.291 39.1811L57.8376 46.4586C58.1324 46.7099 58.3019 47.0769 58.3019 47.4639C58.3019 47.8516 58.1324 48.2186 57.8376 48.4699L49.291 55.7473C49.0426 55.9589 48.7382 56.0628 48.436 56.0628Z" fill="#FEBE41"/>
<path d="M36.9745 61.5212C36.8838 61.5212 36.7925 61.5116 36.7003 61.4925C35.9869 61.3421 35.5299 60.6412 35.6803 59.9277L41.0068 34.6381C41.1571 33.9246 41.8573 33.4677 42.5715 33.618C43.2849 33.7684 43.7419 34.4686 43.5915 35.1827L38.265 60.4724C38.1338 61.0945 37.5855 61.5212 36.9745 61.5212Z" fill="#FEBE41"/>
<path d="M71.1321 75.2992H8.86792C3.97848 75.2992 0 71.3215 0 66.4313V13.5849C0 8.69546 3.97848 4.71698 8.86792 4.71698H71.1321C76.0215 4.71698 80 8.69546 80 13.5849V66.4313C80 71.3215 76.0215 75.2992 71.1321 75.2992ZM8.86792 7.35849C5.43485 7.35849 2.64151 10.1518 2.64151 13.5849V66.4313C2.64151 69.8644 5.43485 72.6577 8.86792 72.6577H71.1321C74.5652 72.6577 77.3585 69.8644 77.3585 66.4313V13.5849C77.3585 10.1518 74.5652 7.35849 71.1321 7.35849H8.86792Z" fill="black"/>
<path d="M78.6792 25.866H1.32075C0.591097 25.866 0 25.2749 0 24.5452C0 23.8163 0.591097 23.2245 1.32075 23.2245H78.6792C79.4089 23.2245 80 23.8163 80 24.5452C80 25.2749 79.4089 25.866 78.6792 25.866Z" fill="black"/>
<path d="M22.5663 19.546C20.2624 19.546 18.3866 17.6703 18.3866 15.3663C18.3866 13.0616 20.2624 11.1866 22.5663 11.1866C24.871 11.1866 26.746 13.0616 26.746 15.3663C26.746 17.6703 24.871 19.546 22.5663 19.546ZM22.5663 13.8282C21.7187 13.8282 21.0282 14.518 21.0282 15.3663C21.0282 16.2147 21.7187 16.9045 22.5663 16.9045C23.4146 16.9045 24.1045 16.2147 24.1045 15.3663C24.1045 14.518 23.4146 13.8282 22.5663 13.8282Z" fill="black"/>
<path d="M9.72435 19.5054C7.41967 19.5054 5.54467 17.6304 5.54467 15.3257C5.54467 13.0211 7.41967 11.1461 9.72435 11.1461C12.029 11.1461 13.904 13.0211 13.904 15.3257C13.904 17.6304 12.029 19.5054 9.72435 19.5054ZM9.72435 13.7876C8.87677 13.7876 8.18618 14.4782 8.18618 15.3257C8.18618 16.1741 8.87677 16.8639 9.72435 16.8639C10.5727 16.8639 11.2625 16.1741 11.2625 15.3257C11.2625 14.4782 10.5727 13.7876 9.72435 13.7876Z" fill="black"/>
<path d="M35.4083 19.5858C33.1044 19.5858 31.2294 17.7108 31.2294 15.4061C31.2294 13.1022 33.1044 11.2272 35.4083 11.2272C37.713 11.2272 39.588 13.1022 39.588 15.4061C39.588 17.7108 37.713 19.5858 35.4083 19.5858ZM35.4083 13.8679C34.5607 13.8679 33.8709 14.5578 33.8709 15.4061C33.8709 16.2544 34.5607 16.9443 35.4083 16.9443C36.2566 16.9443 36.9465 16.2544 36.9465 15.4061C36.9465 14.5578 36.2566 13.8679 35.4083 13.8679Z" fill="black"/>
</svg>
